<svg width="34" height="34" viewBox="0 0 34 34" fill="none" xmlns="http://www.w3.org/2000/svg">
<path fill-rule="evenodd" clip-rule="evenodd" d="M16.5547 0.751953C7.41405 0.751953 0 8.16876 0 17.3128C0 24.628 4.77343 30.8256 11.2734 33.0608C12.0859 33.1624 12.3906 32.6544 12.3906 32.248C12.3906 31.8416 12.3906 30.8256 12.3906 29.4032C7.8203 30.4192 6.80468 27.168 6.80468 27.168C6.09374 25.2376 4.97656 24.7296 4.97656 24.7296C3.45312 23.7136 5.07812 23.7136 5.07812 23.7136C6.70312 23.8152 7.61718 25.4408 7.61718 25.4408C9.14062 27.9808 11.4766 27.2696 12.3906 26.8632C12.4922 25.7456 13 25.0344 13.4062 24.628C9.74999 24.2216 5.89062 22.7992 5.89062 16.3984C5.89062 14.5696 6.49999 13.1472 7.61718 11.928C7.51562 11.6232 6.90624 9.89596 7.8203 7.66076C7.8203 7.66076 9.24218 7.25436 12.3906 9.38796C13.7109 8.98156 15.1328 8.87996 16.5547 8.87996C17.9765 8.87996 19.3984 9.08316 20.7187 9.38796C23.8672 7.25436 25.289 7.66076 25.289 7.66076C26.2031 9.89596 25.5937 11.6232 25.4922 12.0296C26.5078 13.1472 27.2187 14.6712 27.2187 16.5C27.2187 22.9008 23.3594 24.2216 19.7031 24.628C20.3125 25.136 20.8203 26.152 20.8203 27.676C20.8203 29.9112 20.8203 31.6384 20.8203 32.248C20.8203 32.6544 21.125 33.1624 21.9375 33.0608C28.539 30.8256 33.2109 24.628 33.2109 17.3128C33.1093 8.16876 25.6953 0.751953 16.5547 0.751953Z" fill="#191717"/>
</svg>
