<svg width="184" height="27" viewBox="0 0 184 27" fill="none" xmlns="http://www.w3.org/2000/svg">
<path d="M11.8598 13.773C11.8598 14.7796 11.5854 15.5848 11.0549 16.1887C10.5244 16.7926 9.82919 17.0855 8.98767 17.0855C8.12785 17.0855 7.41438 16.7743 6.84726 16.1704C6.28014 15.5665 5.98744 14.7613 5.98744 13.773V3.39648H0.71875V13.773C0.71875 15.3286 1.06634 16.6645 1.74322 17.8175C2.4201 18.9704 3.38968 19.8672 4.63368 20.4894C5.87768 21.1299 7.32291 21.441 8.96937 21.441C10.5975 21.441 12.0245 21.1299 13.2685 20.4894C14.4942 19.8489 15.4455 18.9704 16.1041 17.8175C16.7626 16.6645 17.1102 15.3103 17.1102 13.773V3.39648H11.8598V13.773Z" fill="black"/>
<path d="M36.9037 8.04472C37.544 7.6421 38.2575 7.44079 39.0441 7.44079C39.7759 7.44079 40.5076 7.6604 41.276 8.08132C42.0443 8.50224 42.7029 9.08787 43.2518 9.8382L46.2886 6.23294C45.3922 5.28129 44.2945 4.51266 42.959 3.92703C41.6236 3.35971 40.3064 3.06689 38.9709 3.06689C37.1781 3.06689 35.5499 3.46951 34.1047 4.25645C32.6595 5.04338 31.5252 6.14143 30.702 7.5323C29.8788 8.92316 29.458 10.4787 29.458 12.199C29.458 13.9559 29.8605 15.5298 30.6654 16.9389C31.4704 18.3481 32.5863 19.4644 34.0132 20.2514C35.4402 21.0566 37.0318 21.4592 38.8063 21.4592C40.1418 21.4592 41.4772 21.1481 42.831 20.5259C44.1848 19.9037 45.3373 19.0618 46.3069 18.0187L43.2701 14.7794C42.6663 15.42 41.9712 15.9324 41.2211 16.2984C40.4528 16.6644 39.7393 16.8474 39.0624 16.8474C38.2758 16.8474 37.5623 16.6461 36.922 16.2252C36.2817 15.8043 35.7695 15.2552 35.4036 14.5415C35.0377 13.8278 34.8548 13.0225 34.8548 12.1258C34.8548 11.2291 35.0377 10.4238 35.4036 9.7101C35.7512 8.99636 36.2634 8.44734 36.9037 8.04472Z" fill="black"/>
<path d="M58.2539 8.04397C57.1014 7.45834 55.7659 7.16553 54.2475 7.16553C52.7108 7.16553 51.3753 7.45834 50.2228 8.04397C49.0703 8.62959 48.1739 9.45313 47.5519 10.5146C46.9299 11.576 46.6006 12.8205 46.6006 14.2296C46.6006 15.6205 46.9116 16.865 47.5519 17.9264C48.1922 18.9879 49.0703 19.8114 50.2228 20.397C51.3753 20.9826 52.7108 21.2755 54.2475 21.2755C55.7842 21.2755 57.1197 20.9826 58.2539 20.397C59.4065 19.8114 60.2846 18.9879 60.9249 17.9264C61.5652 16.865 61.8762 15.6205 61.8762 14.2296C61.8762 12.8205 61.5652 11.576 60.9249 10.5146C60.2846 9.45313 59.4065 8.62959 58.2539 8.04397ZM56.0403 16.4989C55.583 17.048 54.9793 17.3408 54.2475 17.3408C53.4975 17.3408 52.8755 17.0663 52.4364 16.4989C51.9973 15.9316 51.7595 15.1996 51.7595 14.2845C51.7595 13.3695 51.9791 12.6375 52.4364 12.0701C52.8938 11.5028 53.4975 11.2283 54.2475 11.2283C54.9793 11.2283 55.583 11.5028 56.0403 12.0701C56.4977 12.6375 56.7172 13.3695 56.7172 14.2845C56.7172 15.1996 56.4794 15.9499 56.0403 16.4989Z" fill="black"/>
<path d="M84.9627 7.80606C84.2309 7.38514 83.3711 7.16553 82.4198 7.16553C81.3588 7.16553 80.4258 7.42174 79.6391 7.93416C78.8342 8.44659 78.2122 9.17862 77.7914 10.1486C77.4256 9.19692 76.8401 8.46489 76.0535 7.95246C75.2669 7.42174 74.3339 7.16553 73.2728 7.16553C72.3398 7.16553 71.5166 7.36684 70.8031 7.75115C70.0713 8.15377 69.4859 8.7211 69.0103 9.45313V7.34854H63.9062V21.0925H69.0103V14.3029C69.0103 13.5159 69.2115 12.8754 69.5957 12.3813C69.9982 11.8871 70.5104 11.6492 71.169 11.6309C71.7361 11.6309 72.1935 11.8322 72.541 12.2349C72.8886 12.6375 73.0533 13.1865 73.0533 13.8453V21.0925H78.1573V14.3029C78.1573 13.5159 78.3585 12.8754 78.7427 12.3813C79.1269 11.8871 79.6574 11.6492 80.316 11.6309C80.8831 11.6309 81.3405 11.8322 81.6881 12.2349C82.0357 12.6375 82.2003 13.1865 82.2003 13.8453V21.0925H87.3043V12.3813C87.3043 11.3381 87.1031 10.4231 86.7006 9.63614C86.2799 8.8309 85.6945 8.22698 84.9627 7.80606Z" fill="black"/>
<path d="M111.069 7.80606C110.337 7.38514 109.477 7.16553 108.526 7.16553C107.465 7.16553 106.532 7.42174 105.745 7.93416C104.94 8.44659 104.318 9.17862 103.898 10.1486C103.532 9.19692 102.946 8.46489 102.16 7.95246C101.373 7.42174 100.44 7.16553 99.379 7.16553C98.446 7.16553 97.6228 7.36684 96.9093 7.75115C96.1775 8.15377 95.5921 8.7211 95.1165 9.45313V7.34854H89.9941V21.0925H95.0982V14.3029C95.0982 13.5159 95.2994 12.8754 95.6836 12.3813C96.0861 11.8871 96.5983 11.6492 97.2569 11.6309C97.824 11.6309 98.2814 11.8322 98.6289 12.2349C98.9765 12.6375 99.1412 13.1865 99.1412 13.8453V21.0925H104.245V14.3029C104.245 13.5159 104.446 12.8754 104.831 12.3813C105.215 11.8871 105.745 11.6492 106.404 11.6309C106.971 11.6309 107.428 11.8322 107.776 12.2349C108.124 12.6375 108.288 13.1865 108.288 13.8453V21.0925H113.392V12.3813C113.392 11.3381 113.191 10.4231 112.789 9.63614C112.386 8.8309 111.801 8.22698 111.069 7.80606Z" fill="black"/>
<path d="M124.771 14.1585C124.771 14.9454 124.588 15.586 124.204 16.0801C123.82 16.5742 123.308 16.8121 122.649 16.8304C122.1 16.8304 121.643 16.6291 121.314 16.2448C120.984 15.8422 120.801 15.3115 120.801 14.6343V7.35059H115.697V16.0618C115.697 17.1232 115.898 18.0566 116.301 18.8435C116.703 19.6305 117.271 20.2527 118.002 20.6736C118.734 21.0945 119.576 21.3141 120.545 21.3141C121.46 21.3141 122.265 21.1128 122.978 20.7285C123.692 20.3442 124.295 19.7769 124.753 19.0448V21.0945H129.875V7.35059H124.771V14.1585Z" fill="black"/>
<path d="M145.004 7.80606C144.254 7.38514 143.394 7.16553 142.425 7.16553C141.473 7.16553 140.613 7.36684 139.882 7.75115C139.15 8.15377 138.546 8.7211 138.052 9.48973V7.34854H132.948V21.0925H138.052V14.3029C138.052 13.5159 138.254 12.8754 138.656 12.3813C139.058 11.8871 139.607 11.6492 140.302 11.6309C140.888 11.6309 141.364 11.8322 141.729 12.2349C142.095 12.6375 142.278 13.1865 142.278 13.8453V21.0925H147.382V12.3813C147.382 11.3381 147.181 10.4231 146.76 9.63614C146.339 8.8309 145.754 8.22698 145.004 7.80606Z" fill="black"/>
<path d="M152.596 0.815918C151.828 0.815918 151.187 1.05383 150.693 1.54796C150.199 2.04208 149.943 2.66432 149.943 3.45126C149.943 4.2199 150.199 4.86043 150.693 5.33626C151.187 5.83039 151.828 6.0683 152.596 6.0683C153.364 6.0683 154.005 5.83039 154.499 5.33626C154.992 4.84213 155.23 4.2199 155.23 3.45126C155.23 2.68262 154.992 2.04208 154.499 1.54796C154.005 1.05383 153.364 0.815918 152.596 0.815918Z" fill="black"/>
<path d="M155.175 7.35059H150.071V21.0945H155.175V7.35059Z" fill="black"/>
<path d="M166.738 16.9195C166.006 17.194 165.494 17.3221 165.165 17.3221C164.799 17.3221 164.506 17.2123 164.305 16.9927C164.104 16.7731 163.994 16.4437 163.994 16.0045V11.3195H167.378V8.06194H163.994V4.25537H158.926V8.06194H157.042V11.3195H158.926V16.7914C158.926 18.1823 159.365 19.2986 160.243 20.1039C161.122 20.9091 162.292 21.3117 163.756 21.3117C164.469 21.3117 165.165 21.2385 165.86 21.0738C166.555 20.9091 167.159 20.7078 167.634 20.4333L166.738 16.9195Z" fill="black"/>
<path d="M178.446 7.35082L175.903 15.7692L172.903 7.35082H167.671L173.36 20.7104L173.104 21.1862C172.811 21.7718 172.317 22.0646 171.622 22.0646C171.293 22.0646 170.982 22.0097 170.689 21.8816C170.396 21.7718 170.104 21.5705 169.774 21.2777L167.652 24.6817C168.348 25.2124 169.043 25.5784 169.756 25.8346C170.47 26.0725 171.238 26.2006 172.079 26.2006C173.452 26.2006 174.622 25.8712 175.555 25.2307C176.507 24.5902 177.238 23.5836 177.769 22.2294L183.532 7.33252H178.446V7.35082Z" fill="black"/>
<path d="M23.8786 3.19336C22.6712 3.19336 21.6284 3.63258 20.7686 4.49272C19.9088 5.35285 19.4697 6.396 19.4697 7.60385C19.4697 8.8117 19.9088 9.85485 20.7686 10.715C21.6284 11.5751 22.6712 12.0143 23.8786 12.0143C25.1043 12.0143 26.1654 11.5751 27.0435 10.715C27.9216 9.85485 28.3606 8.8117 28.3606 7.60385C28.3606 6.396 27.9216 5.35285 27.0435 4.49272C26.1654 3.63258 25.1043 3.19336 23.8786 3.19336ZM25.4153 9.03131C24.9945 9.43393 24.464 9.63524 23.8786 9.63524C23.2932 9.63524 22.7992 9.43393 22.3968 9.03131C21.976 8.6287 21.7748 8.15287 21.7748 7.60385C21.7748 7.05483 21.976 6.57901 22.3968 6.17639C22.8175 5.77377 23.3115 5.57246 23.8786 5.57246C24.4823 5.57246 24.9945 5.77377 25.4153 6.17639C25.8361 6.57901 26.0556 7.05483 26.0556 7.60385C26.0556 8.15287 25.8544 8.6287 25.4153 9.03131Z" fill="black"/>
</svg>
