<svg width="34" height="34" viewBox="0 0 34 34" fill="none" xmlns="http://www.w3.org/2000/svg">
<path d="M20.8661 17.0103C19.9342 17.0103 19.1709 17.7696 19.1709 18.7061C19.1709 19.6427 19.9299 20.402 20.8661 20.402C21.8023 20.402 22.5613 19.6427 22.5613 18.7061C22.5613 17.7696 21.798 17.0103 20.8661 17.0103Z" fill="black"/>
<path d="M15.1102 18.7017C15.1102 17.7694 14.3511 17.0059 13.415 17.0059C12.4788 17.0059 11.7197 17.7652 11.7197 18.7017C11.7197 19.634 12.4788 20.3975 13.415 20.3975C14.3511 20.3975 15.1102 19.634 15.1102 18.7017Z" fill="black"/>
<path d="M20.5414 22.5531C19.8119 23.2829 18.2516 23.5402 17.1426 23.5402C16.0293 23.5402 14.469 23.2787 13.7437 22.5531C13.5708 22.3801 13.2967 22.3801 13.1238 22.5531C12.9509 22.726 12.9509 23.0002 13.1238 23.1732C14.2793 24.3291 16.4932 24.4177 17.1426 24.4177C17.792 24.4177 20.0059 24.3249 21.1613 23.1732C21.33 23.0002 21.33 22.726 21.1613 22.5531C20.9927 22.3801 20.7143 22.3801 20.5414 22.5531Z" fill="black"/>
<path d="M17.1427 0.751953C8.16908 0.751953 0.890625 8.03309 0.890625 17.0101C0.890625 25.987 8.16908 33.2682 17.1427 33.2682C26.1164 33.2682 33.3949 25.987 33.3949 17.0101C33.3949 8.03309 26.1122 0.751953 17.1427 0.751953ZM26.5676 19.1784C26.6014 19.4104 26.6224 19.6509 26.6224 19.8913C26.6224 23.5403 22.376 26.4933 17.1427 26.4933C11.9095 26.4933 7.66305 23.5361 7.66305 19.8913C7.66305 19.6466 7.68413 19.4062 7.71786 19.1742C6.89134 18.8029 6.31784 17.9761 6.31784 17.0101C6.31784 15.7023 7.37629 14.6393 8.68776 14.6393C9.32452 14.6393 9.89803 14.8882 10.3239 15.2974C11.9685 14.112 14.2415 13.3526 16.7759 13.2894C16.7759 13.2556 16.7674 13.2261 16.7759 13.1965L17.9608 7.61968C17.9819 7.51 18.0494 7.41297 18.1422 7.35391C18.2349 7.29064 18.3488 7.27376 18.4627 7.29485L22.4013 8.13434C22.6796 7.57328 23.2447 7.18939 23.9109 7.18939C24.8471 7.18939 25.6062 7.94872 25.6062 8.88523C25.6062 9.82174 24.8471 10.5811 23.9109 10.5811C23.0043 10.5811 22.2706 9.86392 22.2284 8.9696L18.703 8.21871L17.6235 13.302C20.1115 13.3906 22.3422 14.1457 23.9616 15.3142C24.3875 14.9008 24.9652 14.6477 25.6062 14.6477C26.9176 14.6477 27.9761 15.7066 27.9761 17.0185C27.9719 17.9761 27.3899 18.8072 26.5676 19.1784Z" fill="black"/>
</svg>
