<svg width="72" height="32" viewBox="0 0 72 32" fill="none" xmlns="http://www.w3.org/2000/svg">
<path d="M53.201 13.5798C54.125 13.5798 54.8577 13.8505 55.399 14.3918C55.9497 14.9238 56.225 15.7032 56.225 16.7298V20.9998H55.231V16.8278C55.231 16.0625 55.0397 15.4792 54.657 15.0778C54.2743 14.6765 53.7283 14.4758 53.019 14.4758C52.2257 14.4758 51.5957 14.7138 51.129 15.1898C50.6717 15.6565 50.443 16.3052 50.443 17.1358V20.9998H49.449V10.6118H50.443V14.9238C50.7137 14.4945 51.087 14.1632 51.563 13.9298C52.039 13.6965 52.585 13.5798 53.201 13.5798ZM43.8525 21.0838C42.8818 21.0838 42.0045 20.8692 41.2205 20.4398C40.4458 20.0105 39.8345 19.4178 39.3865 18.6618C38.9478 17.8965 38.7285 17.0425 38.7285 16.0998C38.7285 15.1572 38.9478 14.3078 39.3865 13.5518C39.8345 12.7865 40.4505 12.1891 41.2345 11.7598C42.0185 11.3305 42.8958 11.1158 43.8665 11.1158C44.5945 11.1158 45.2665 11.2372 45.8825 11.4798C46.4985 11.7225 47.0212 12.0771 47.4505 12.5438L46.7925 13.2018C46.0272 12.4271 45.0612 12.0398 43.8945 12.0398C43.1198 12.0398 42.4152 12.2171 41.7805 12.5718C41.1458 12.9265 40.6465 13.4118 40.2825 14.0278C39.9278 14.6438 39.7505 15.3345 39.7505 16.0998C39.7505 16.8652 39.9278 17.5558 40.2825 18.1718C40.6465 18.7878 41.1458 19.2732 41.7805 19.6278C42.4152 19.9825 43.1198 20.1598 43.8945 20.1598C45.0705 20.1598 46.0365 19.7678 46.7925 18.9838L47.4505 19.6418C47.0212 20.1085 46.4938 20.4678 45.8685 20.7198C45.2525 20.9625 44.5805 21.0838 43.8525 21.0838ZM63.7116 14.3078C63.1983 13.8225 62.461 13.5798 61.4996 13.5798C60.921 13.5798 60.3703 13.6685 59.8476 13.8458C59.325 14.0138 58.877 14.2565 58.5036 14.5738L58.9516 15.3158C59.2596 15.0452 59.6283 14.8352 60.0576 14.6858C60.487 14.5272 60.935 14.4478 61.4016 14.4478C62.083 14.4478 62.601 14.6158 62.9556 14.9518C63.3103 15.2785 63.4876 15.7592 63.4876 16.3938V16.8418H61.1496C60.1603 16.8418 59.437 17.0332 58.9796 17.4158C58.5316 17.7985 58.3076 18.3025 58.3076 18.9278C58.3076 19.5718 58.5503 20.0898 59.0356 20.4818C59.521 20.8738 60.1743 21.0698 60.9956 21.0698C61.593 21.0698 62.1063 20.9625 62.5356 20.7478C62.9743 20.5332 63.3056 20.2345 63.5296 19.8518V20.9998H64.4816V16.4358C64.4816 15.4931 64.225 14.7838 63.7116 14.3078ZM62.5916 19.9078C62.1903 20.1598 61.7096 20.2858 61.1496 20.2858C60.5616 20.2858 60.1043 20.1645 59.7776 19.9218C59.451 19.6698 59.2876 19.3292 59.2876 18.8998C59.2876 18.0225 59.9176 17.5838 61.1776 17.5838H63.4876V18.7878C63.2916 19.2732 62.993 19.6465 62.5916 19.9078ZM71.0594 20.5518C70.8728 20.7198 70.6394 20.8505 70.3594 20.9438C70.0888 21.0278 69.8041 21.0698 69.5054 21.0698C68.8148 21.0698 68.2828 20.8832 67.9094 20.5098C67.5361 20.1365 67.3494 19.6092 67.3494 18.9278V14.4758H66.0334V13.6358H67.3494V12.0258H68.3434V13.6358H70.5834V14.4758H68.3434V18.8718C68.3434 19.3105 68.4508 19.6465 68.6654 19.8798C68.8894 20.1038 69.2068 20.2158 69.6174 20.2158C69.8228 20.2158 70.0188 20.1832 70.2054 20.1178C70.4014 20.0525 70.5694 19.9592 70.7094 19.8378L71.0594 20.5518Z" fill="black"/>
<path d="M53.201 13.5798C54.125 13.5798 54.8577 13.8505 55.399 14.3918C55.9497 14.9238 56.225 15.7032 56.225 16.7298V20.9998H55.231V16.8278C55.231 16.0625 55.0397 15.4792 54.657 15.0778C54.2743 14.6765 53.7283 14.4758 53.019 14.4758C52.2257 14.4758 51.5957 14.7138 51.129 15.1898C50.6717 15.6565 50.443 16.3052 50.443 17.1358V20.9998H49.449V10.6118H50.443V14.9238C50.7137 14.4945 51.087 14.1632 51.563 13.9298C52.039 13.6965 52.585 13.5798 53.201 13.5798ZM43.8525 21.0838C42.8818 21.0838 42.0045 20.8692 41.2205 20.4398C40.4458 20.0105 39.8345 19.4178 39.3865 18.6618C38.9478 17.8965 38.7285 17.0425 38.7285 16.0998C38.7285 15.1572 38.9478 14.3078 39.3865 13.5518C39.8345 12.7865 40.4505 12.1891 41.2345 11.7598C42.0185 11.3305 42.8958 11.1158 43.8665 11.1158C44.5945 11.1158 45.2665 11.2372 45.8825 11.4798C46.4985 11.7225 47.0212 12.0771 47.4505 12.5438L46.7925 13.2018C46.0272 12.4271 45.0612 12.0398 43.8945 12.0398C43.1198 12.0398 42.4152 12.2171 41.7805 12.5718C41.1458 12.9265 40.6465 13.4118 40.2825 14.0278C39.9278 14.6438 39.7505 15.3345 39.7505 16.0998C39.7505 16.8652 39.9278 17.5558 40.2825 18.1718C40.6465 18.7878 41.1458 19.2732 41.7805 19.6278C42.4152 19.9825 43.1198 20.1598 43.8945 20.1598C45.0705 20.1598 46.0365 19.7678 46.7925 18.9838L47.4505 19.6418C47.0212 20.1085 46.4938 20.4678 45.8685 20.7198C45.2525 20.9625 44.5805 21.0838 43.8525 21.0838ZM63.7116 14.3078C63.1983 13.8225 62.461 13.5798 61.4996 13.5798C60.921 13.5798 60.3703 13.6685 59.8476 13.8458C59.325 14.0138 58.877 14.2565 58.5036 14.5738L58.9516 15.3158C59.2596 15.0452 59.6283 14.8352 60.0576 14.6858C60.487 14.5272 60.935 14.4478 61.4016 14.4478C62.083 14.4478 62.601 14.6158 62.9556 14.9518C63.3103 15.2785 63.4876 15.7592 63.4876 16.3938V16.8418H61.1496C60.1603 16.8418 59.437 17.0332 58.9796 17.4158C58.5316 17.7985 58.3076 18.3025 58.3076 18.9278C58.3076 19.5718 58.5503 20.0898 59.0356 20.4818C59.521 20.8738 60.1743 21.0698 60.9956 21.0698C61.593 21.0698 62.1063 20.9625 62.5356 20.7478C62.9743 20.5332 63.3056 20.2345 63.5296 19.8518V20.9998H64.4816V16.4358C64.4816 15.4931 64.225 14.7838 63.7116 14.3078ZM62.5916 19.9078C62.1903 20.1598 61.7096 20.2858 61.1496 20.2858C60.5616 20.2858 60.1043 20.1645 59.7776 19.9218C59.451 19.6698 59.2876 19.3292 59.2876 18.8998C59.2876 18.0225 59.9176 17.5838 61.1776 17.5838H63.4876V18.7878C63.2916 19.2732 62.993 19.6465 62.5916 19.9078ZM71.0594 20.5518C70.8728 20.7198 70.6394 20.8505 70.3594 20.9438C70.0888 21.0278 69.8041 21.0698 69.5054 21.0698C68.8148 21.0698 68.2828 20.8832 67.9094 20.5098C67.5361 20.1365 67.3494 19.6092 67.3494 18.9278V14.4758H66.0334V13.6358H67.3494V12.0258H68.3434V13.6358H70.5834V14.4758H68.3434V18.8718C68.3434 19.3105 68.4508 19.6465 68.6654 19.8798C68.8894 20.1038 69.2068 20.2158 69.6174 20.2158C69.8228 20.2158 70.0188 20.1832 70.2054 20.1178C70.4014 20.0525 70.5694 19.9592 70.7094 19.8378L71.0594 20.5518Z" stroke="black"/>
<path d="M13.6325 19.1695C14.0525 19.4749 14.5107 19.8186 14.9308 20.1241C14.4726 20.5823 14.0143 21.0024 13.5561 21.4606C13.5179 21.4988 13.4797 21.537 13.4415 21.5752L13.4797 21.2697C13.5179 20.6205 13.5943 19.895 13.6325 19.1695ZM17.1838 12.8687C14.969 14.2434 12.7924 15.6563 10.5776 17.031C10.5394 17.0692 10.5012 17.0692 10.4248 17.1074C10.7303 18.0239 10.9976 18.9403 11.3031 19.8568C11.494 20.506 11.7232 21.1551 11.9141 21.8043C11.9905 22.0716 12.1432 22.2243 12.4105 22.1862C12.4869 21.0788 12.5632 19.9714 12.6396 18.864C12.6396 18.7494 12.6778 18.5967 12.6778 18.4821C12.5632 18.4057 12.6014 18.2912 12.6396 18.2148C12.716 18.1384 12.7924 18.0621 12.8687 17.9857C12.9069 17.9475 12.9069 17.9475 12.9451 17.9093C12.9833 17.8711 13.0215 17.8329 13.0597 17.7947C13.2506 17.642 13.4415 17.4511 13.5943 17.2983C13.7088 17.1838 13.7852 17.1074 13.8998 16.9928C14.1671 16.7255 14.4726 16.4582 14.7399 16.1909C15.4654 15.5418 16.2291 14.8926 16.9547 14.2053C17.8711 13.3652 18.8258 12.5251 19.7422 11.6468C19.8186 11.5704 19.8568 11.4177 19.895 11.3413C19.7422 11.3795 19.5513 11.3413 19.3986 11.4177C18.7494 11.9141 17.9857 12.3723 17.1838 12.8687ZM32 16C32 24.821 24.821 32 16 32C7.179 32 0 24.821 0 16C0 7.179 7.179 0 16 0C24.821 0 32 7.179 32 16ZM23.1408 9.62291C23.1408 9.54654 23.1408 9.50835 23.1026 9.43198C22.9499 8.74463 22.6062 8.5537 21.9189 8.78282C21.8043 8.821 21.7279 8.821 21.6134 8.85919C21.2315 9.01193 20.8878 9.16468 20.506 9.31742C19.895 9.54654 19.2458 9.77566 18.6348 10.0048C18.253 10.1575 17.8711 10.3484 17.4893 10.5012C16.5346 10.8831 15.5418 11.2649 14.5871 11.6468C12.6014 12.4105 10.5776 13.1742 8.59189 13.9761C8.13365 14.1671 7.67542 14.3198 7.25537 14.5107C6.87351 14.6635 6.45346 14.8162 6.10979 15.0453C5.95704 15.1599 5.76611 15.389 5.8043 15.5418C5.8043 15.6945 6.0716 15.8473 6.22434 16C6.26253 16.0382 6.30072 16.0382 6.3389 16.0382C7.40811 16.3819 8.47733 16.6873 9.50835 17.031C9.50835 17.1456 9.50835 17.2601 9.54654 17.3747L9.9284 18.5967L10.4248 20.2387C10.5012 20.4296 10.5394 20.6205 10.6158 20.8115C10.7685 21.2697 10.9212 21.7279 11.0358 22.1862C11.3413 23.179 12.1432 23.2554 12.3723 23.2554C12.4105 23.2554 12.4487 23.2554 12.4869 23.2554C12.5251 23.2554 12.5632 23.2554 12.6014 23.2554C13.2124 23.2554 13.5943 22.9117 13.8234 22.7208C13.8616 22.6826 13.8998 22.6444 13.9379 22.6444C13.9761 22.6062 14.0143 22.568 14.0525 22.5298C14.0907 22.4916 14.1289 22.4535 14.1289 22.4153C14.1671 22.3771 14.2053 22.3007 14.2816 22.2625C14.6253 21.9189 15.0072 21.5752 15.3508 21.1933L15.7709 20.7733C15.8473 20.8115 15.8854 20.8496 15.9618 20.8878C16.9165 21.6134 17.8711 22.3389 18.864 23.0263C19.5895 23.5609 20.0859 23.4081 20.4296 22.6062C20.5823 21.9189 20.7351 21.2315 20.8878 20.5442C21.0406 19.8568 21.1551 19.1695 21.3079 18.4821C21.3842 18.1002 21.4606 17.7184 21.5752 17.3365C21.8043 16.2673 22.0334 15.2363 22.2625 14.1671C22.3389 13.8234 22.4153 13.4797 22.4916 13.136C22.4916 13.0597 22.5298 12.9833 22.5298 12.9069C22.6826 11.7995 22.9117 10.6921 23.1408 9.62291Z" fill="black"/>
</svg>
