<svg width="83" height="20" viewBox="0 0 83 20" fill="none" xmlns="http://www.w3.org/2000/svg">
<g clip-path="url(#clip0)">
<path d="M42.7576 18H35.2121V11.5C35.2121 10.625 34.8348 9.875 34.3318 9.25L31.4394 6.375C30.8106 5.875 30.0561 5.5 29.1758 5.5H27.6667V18H20.1212V-2H31.0621C32.697 -2 34.3318 -1.375 35.4636 -0.125L40.8712 5.25C42.1288 6.375 42.7576 8 42.7576 9.625V18ZM75.4545 -2V4.5C75.4545 5.375 75.0773 6.125 74.5742 6.75L71.6818 9.625C71.053 10.25 70.2985 10.5 69.4182 10.5H66.2742C67.2803 9.375 67.9091 7.875 67.9091 6.375V-2H60.3636V4.5C60.3636 5.375 59.9864 6.125 59.4833 6.75L56.5909 9.625C55.9621 10.25 55.2076 10.5 54.3273 10.5H52.8182V-2H45.2727V18H56.2136C57.8485 18 59.4833 17.375 60.6152 16.125L64.1364 12.625V18H71.3045C72.9394 18 74.5742 17.375 75.7061 16.125L81.1136 10.75C82.3712 9.625 83 8 83 6.375V-2H75.4545ZM17.6061 -2H0V5.5H5.0303V18H12.5758V5.5H17.6061" fill="#787878"/>
</g>
<defs>
<clipPath id="clip0">
<rect width="83" height="20" fill="white"/>
</clipPath>
</defs>
</svg>
