<svg width="34" height="28" viewBox="0 0 34 28" fill="none" xmlns="http://www.w3.org/2000/svg">
<path d="M10.9836 27.3228C23.2426 27.3228 29.9506 17.1105 29.9506 8.2695C29.9506 7.9822 29.9506 7.69489 29.9376 7.40759C31.2376 6.45427 32.3686 5.27895 33.2656 3.94692C32.0436 4.48234 30.7566 4.848 29.4306 5.00471C30.8216 4.16892 31.8616 2.84995 32.3556 1.29591C31.0426 2.07946 29.6126 2.62794 28.1176 2.91524C25.5956 0.211995 21.3706 0.0814039 18.6796 2.62794C16.9506 4.26034 16.2096 6.7024 16.7556 9.02693C11.4126 8.75269 6.40762 6.20615 3.02762 2.02722C1.25962 5.08306 2.15662 9.00081 5.09462 10.9597C4.02862 10.9336 3.00162 10.6463 2.06562 10.1239C2.06562 10.15 2.06562 10.1761 2.06562 10.2023C2.06562 13.3887 4.30163 16.1311 7.42162 16.771C6.43362 17.0453 5.40662 17.0844 4.40562 16.8885C5.27662 19.6179 7.78562 21.4854 10.6326 21.5376C8.26662 23.4051 5.35462 24.4106 2.35162 24.4106C1.81862 24.4106 1.28562 24.3714 0.765625 24.3192C3.82062 26.2911 7.35662 27.3228 10.9836 27.3228Z" fill="#191717"/>
</svg>
