<svg width="245" height="17" viewBox="0 0 245 17" fill="none" xmlns="http://www.w3.org/2000/svg">
<path d="M7.26855 6.4502C7.26855 6.74902 7.19531 7.01562 7.04883 7.25C6.90234 7.47852 6.67676 7.59277 6.37207 7.59277C6.04395 7.59277 5.79199 7.50781 5.61621 7.33789C5.44629 7.16797 5.36133 6.98047 5.36133 6.77539C5.36133 6.64648 5.37012 6.5293 5.3877 6.42383C5.41113 6.31836 5.43164 6.21289 5.44922 6.10742C5.17383 6.10742 4.85156 6.21875 4.48242 6.44141C4.11328 6.66406 3.7998 6.98047 3.54199 7.39062V12.4355C3.54199 12.6406 3.58008 12.8076 3.65625 12.9365C3.73828 13.0654 3.86426 13.1621 4.03418 13.2266C4.18066 13.2852 4.36816 13.3291 4.59668 13.3584C4.83105 13.3877 5.0332 13.4082 5.20312 13.4199V14H0.632812V13.4199C0.767578 13.4082 0.905273 13.3965 1.0459 13.3848C1.19238 13.373 1.31836 13.3496 1.42383 13.3145C1.58789 13.2617 1.70801 13.1709 1.78418 13.042C1.86621 12.9072 1.90723 12.7344 1.90723 12.5234V7.1709C1.90723 6.98926 1.86328 6.81055 1.77539 6.63477C1.69336 6.45898 1.57617 6.31836 1.42383 6.21289C1.3125 6.14258 1.18066 6.09277 1.02832 6.06348C0.875977 6.02832 0.711914 6.00488 0.536133 5.99316V5.42188L3.41895 5.22852L3.54199 5.35156V6.57324H3.58594C3.94922 6.09863 4.35352 5.73828 4.79883 5.49219C5.24414 5.24609 5.65137 5.12305 6.02051 5.12305C6.38965 5.12305 6.68848 5.24316 6.91699 5.4834C7.15137 5.72363 7.26855 6.0459 7.26855 6.4502ZM12.2256 14H8.0332V13.4199C8.16797 13.4082 8.30566 13.3965 8.44629 13.3848C8.59277 13.373 8.71875 13.3496 8.82422 13.3145C8.98828 13.2617 9.1084 13.1709 9.18457 13.042C9.2666 12.9072 9.30762 12.7344 9.30762 12.5234V7.1709C9.30762 6.9834 9.26367 6.81348 9.17578 6.66113C9.09375 6.50293 8.97656 6.37109 8.82422 6.26562C8.71289 6.19531 8.55176 6.13672 8.34082 6.08984C8.12988 6.03711 7.93652 6.00488 7.76074 5.99316V5.42188L10.8193 5.22852L10.9424 5.35156V12.418C10.9424 12.623 10.9805 12.793 11.0566 12.9277C11.1387 13.0625 11.2646 13.1621 11.4346 13.2266C11.5635 13.2793 11.6895 13.3232 11.8125 13.3584C11.9355 13.3877 12.0732 13.4082 12.2256 13.4199V14ZM11.1182 1.80957C11.1182 2.14355 11.0068 2.43652 10.7842 2.68848C10.5674 2.93457 10.2979 3.05762 9.97559 3.05762C9.67676 3.05762 9.41602 2.94043 9.19336 2.70605C8.97656 2.46582 8.86816 2.19336 8.86816 1.88867C8.86816 1.56641 8.97656 1.28516 9.19336 1.04492C9.41602 0.804688 9.67676 0.68457 9.97559 0.68457C10.3096 0.68457 10.582 0.798828 10.793 1.02734C11.0098 1.25 11.1182 1.51074 11.1182 1.80957ZM27.2197 7.99707H18.3516V6.89844H27.2197V7.99707ZM27.2197 11.2666H18.3516V10.168H27.2197V11.2666ZM39.085 16.8828C37.4854 16.6836 36.2285 15.8779 35.3145 14.4658C34.4062 13.0537 33.9521 11.1523 33.9521 8.76172C33.9521 6.33008 34.4062 4.40527 35.3145 2.9873C36.2285 1.56348 37.4854 0.746094 39.085 0.535156V1.26465C37.96 1.46973 37.1045 2.1875 36.5186 3.41797C35.9326 4.64844 35.6396 6.43555 35.6396 8.7793C35.6396 11.0117 35.9268 12.749 36.501 13.9912C37.0752 15.2275 37.9365 15.9512 39.085 16.1621V16.8828ZM46.7842 14H40.8604V13.376C41.0361 13.3643 41.3086 13.3408 41.6777 13.3057C42.0527 13.2646 42.3105 13.2236 42.4512 13.1826C42.6328 13.124 42.7705 13.0303 42.8643 12.9014C42.9639 12.7666 43.0137 12.5674 43.0137 12.3037V6.13379H40.8252V5.39551H41.3086C41.9414 5.39551 42.5068 5.27832 43.0049 5.04395C43.5088 4.80957 43.8691 4.55762 44.0859 4.28809H44.8154C44.7979 4.66895 44.7803 5.11426 44.7627 5.62402C44.7451 6.13379 44.7363 6.59082 44.7363 6.99512V12.207C44.7363 12.4121 44.7803 12.5967 44.8682 12.7607C44.9619 12.9189 45.0938 13.0361 45.2637 13.1123C45.416 13.1768 45.665 13.2354 46.0107 13.2881C46.3564 13.3408 46.6143 13.3701 46.7842 13.376V14ZM57.6738 9.63184H48.7178V8.5332H57.6738V9.63184ZM67.1924 5.22852C67.7021 5.26953 68.1973 5.38965 68.6777 5.58887C69.1582 5.78809 69.583 6.06641 69.9521 6.42383C70.3271 6.78711 70.6318 7.25 70.8662 7.8125C71.1006 8.375 71.2178 9.04297 71.2178 9.81641C71.2178 10.4434 71.1357 11.0322 70.9717 11.583C70.8076 12.1279 70.5762 12.5967 70.2773 12.9893C69.9727 13.3994 69.6152 13.7158 69.2051 13.9385C68.8008 14.1553 68.335 14.2637 67.8076 14.2637C67.2979 14.2637 66.8438 14.1348 66.4453 13.877C66.0469 13.6191 65.707 13.2588 65.4258 12.7959C65.1328 13.2646 64.793 13.6279 64.4062 13.8857C64.0254 14.1377 63.5713 14.2637 63.0439 14.2637C62.5342 14.2637 62.0684 14.1523 61.6465 13.9297C61.2305 13.7012 60.873 13.3877 60.5742 12.9893C60.2754 12.5967 60.0439 12.1279 59.8799 11.583C59.7158 11.0322 59.6338 10.4434 59.6338 9.81641C59.6338 9.04883 59.748 8.38965 59.9766 7.83887C60.2051 7.28809 60.5127 6.81934 60.8994 6.43262C61.2803 6.06348 61.708 5.78223 62.1826 5.58887C62.6631 5.39551 63.1553 5.27539 63.6592 5.22852L63.791 5.93164C63.3691 5.98438 63.0088 6.125 62.71 6.35352C62.4111 6.57617 62.168 6.86328 61.9805 7.21484C61.8047 7.54883 61.6699 7.97949 61.5762 8.50684C61.4883 9.02832 61.4443 9.56445 61.4443 10.1152C61.4443 10.5605 61.4736 10.9854 61.5322 11.3896C61.5967 11.7939 61.6934 12.1572 61.8223 12.4795C61.957 12.8018 62.1357 13.0596 62.3584 13.2529C62.5811 13.4463 62.8477 13.543 63.1582 13.543C63.6387 13.543 63.999 13.3906 64.2393 13.0859C64.4795 12.7754 64.5996 12.2393 64.5996 11.4775V8.23438H66.252V11.4775C66.252 12.2217 66.3691 12.752 66.6035 13.0684C66.8438 13.3848 67.207 13.543 67.6934 13.543C68.0098 13.543 68.2793 13.4463 68.502 13.2529C68.7246 13.0537 68.9004 12.7959 69.0293 12.4795C69.1699 12.1338 69.2666 11.7705 69.3193 11.3896C69.3779 11.0029 69.4072 10.5781 69.4072 10.1152C69.4072 9.52344 69.3633 8.98145 69.2754 8.48926C69.1934 7.99707 69.0586 7.57227 68.8711 7.21484C68.6719 6.83984 68.4287 6.5498 68.1416 6.34473C67.8604 6.13379 67.5 5.99609 67.0605 5.93164L67.1924 5.22852ZM80.7012 13.8418C80.4258 13.9414 80.1826 14.0205 79.9717 14.0791C79.7666 14.1436 79.5322 14.1758 79.2686 14.1758C78.8115 14.1758 78.4453 14.0703 78.1699 13.8594C77.9004 13.6426 77.7275 13.3291 77.6514 12.9189H77.5986C77.2178 13.3408 76.8076 13.6631 76.3682 13.8857C75.9346 14.1084 75.4102 14.2197 74.7949 14.2197C74.1445 14.2197 73.6084 14.0205 73.1865 13.6221C72.7705 13.2236 72.5625 12.7021 72.5625 12.0576C72.5625 11.7236 72.6094 11.4248 72.7031 11.1611C72.7969 10.8975 72.9375 10.6602 73.125 10.4492C73.2715 10.2734 73.4648 10.1182 73.7051 9.9834C73.9453 9.84277 74.1709 9.73145 74.3818 9.64941C74.6455 9.5498 75.1787 9.36523 75.9814 9.0957C76.79 8.82617 77.335 8.61523 77.6162 8.46289V7.59277C77.6162 7.5166 77.5986 7.37012 77.5635 7.15332C77.5342 6.93652 77.4668 6.73145 77.3613 6.53809C77.2441 6.32129 77.0771 6.13379 76.8604 5.97559C76.6494 5.81152 76.3477 5.72949 75.9551 5.72949C75.6855 5.72949 75.4336 5.77637 75.1992 5.87012C74.9707 5.95801 74.8096 6.05176 74.7158 6.15137C74.7158 6.26855 74.7422 6.44141 74.7949 6.66992C74.8535 6.89844 74.8828 7.10938 74.8828 7.30273C74.8828 7.50781 74.7891 7.69531 74.6016 7.86523C74.4199 8.03516 74.165 8.12012 73.8369 8.12012C73.5439 8.12012 73.3271 8.01758 73.1865 7.8125C73.0518 7.60156 72.9844 7.36719 72.9844 7.10938C72.9844 6.83984 73.0781 6.58203 73.2656 6.33594C73.459 6.08984 73.708 5.87012 74.0127 5.67676C74.2764 5.5127 74.5957 5.375 74.9707 5.26367C75.3457 5.14648 75.7119 5.08789 76.0693 5.08789C76.5615 5.08789 76.9893 5.12305 77.3525 5.19336C77.7217 5.25781 78.0557 5.40137 78.3545 5.62402C78.6533 5.84082 78.8789 6.13672 79.0312 6.51172C79.1895 6.88086 79.2686 7.3584 79.2686 7.94434C79.2686 8.78223 79.2598 9.52637 79.2422 10.1768C79.2246 10.8213 79.2158 11.5273 79.2158 12.2949C79.2158 12.5234 79.2539 12.7051 79.3301 12.8398C79.4121 12.9746 79.5352 13.0889 79.6992 13.1826C79.7871 13.2354 79.9248 13.2646 80.1123 13.2705C80.3057 13.2764 80.502 13.2793 80.7012 13.2793V13.8418ZM77.6338 9.20117C77.1357 9.34766 76.6992 9.49121 76.3242 9.63184C75.9492 9.77246 75.6006 9.94824 75.2783 10.1592C74.9854 10.3584 74.7539 10.5957 74.584 10.8711C74.4141 11.1406 74.3291 11.4629 74.3291 11.8379C74.3291 12.3242 74.4551 12.6816 74.707 12.9102C74.9648 13.1387 75.29 13.2529 75.6826 13.2529C76.0986 13.2529 76.4648 13.1533 76.7812 12.9541C77.0977 12.749 77.3643 12.5088 77.5811 12.2334L77.6338 9.20117ZM95.5371 9.63184H86.5811V8.5332H95.5371V9.63184ZM105.056 5.22852C105.565 5.26953 106.061 5.38965 106.541 5.58887C107.021 5.78809 107.446 6.06641 107.815 6.42383C108.19 6.78711 108.495 7.25 108.729 7.8125C108.964 8.375 109.081 9.04297 109.081 9.81641C109.081 10.4434 108.999 11.0322 108.835 11.583C108.671 12.1279 108.439 12.5967 108.141 12.9893C107.836 13.3994 107.479 13.7158 107.068 13.9385C106.664 14.1553 106.198 14.2637 105.671 14.2637C105.161 14.2637 104.707 14.1348 104.309 13.877C103.91 13.6191 103.57 13.2588 103.289 12.7959C102.996 13.2646 102.656 13.6279 102.27 13.8857C101.889 14.1377 101.435 14.2637 100.907 14.2637C100.397 14.2637 99.9316 14.1523 99.5098 13.9297C99.0938 13.7012 98.7363 13.3877 98.4375 12.9893C98.1387 12.5967 97.9072 12.1279 97.7432 11.583C97.5791 11.0322 97.4971 10.4434 97.4971 9.81641C97.4971 9.04883 97.6113 8.38965 97.8398 7.83887C98.0684 7.28809 98.376 6.81934 98.7627 6.43262C99.1436 6.06348 99.5713 5.78223 100.046 5.58887C100.526 5.39551 101.019 5.27539 101.522 5.22852L101.654 5.93164C101.232 5.98438 100.872 6.125 100.573 6.35352C100.274 6.57617 100.031 6.86328 99.8438 7.21484C99.668 7.54883 99.5332 7.97949 99.4395 8.50684C99.3516 9.02832 99.3076 9.56445 99.3076 10.1152C99.3076 10.5605 99.3369 10.9854 99.3955 11.3896C99.46 11.7939 99.5566 12.1572 99.6855 12.4795C99.8203 12.8018 99.999 13.0596 100.222 13.2529C100.444 13.4463 100.711 13.543 101.021 13.543C101.502 13.543 101.862 13.3906 102.103 13.0859C102.343 12.7754 102.463 12.2393 102.463 11.4775V8.23438H104.115V11.4775C104.115 12.2217 104.232 12.752 104.467 13.0684C104.707 13.3848 105.07 13.543 105.557 13.543C105.873 13.543 106.143 13.4463 106.365 13.2529C106.588 13.0537 106.764 12.7959 106.893 12.4795C107.033 12.1338 107.13 11.7705 107.183 11.3896C107.241 11.0029 107.271 10.5781 107.271 10.1152C107.271 9.52344 107.227 8.98145 107.139 8.48926C107.057 7.99707 106.922 7.57227 106.734 7.21484C106.535 6.83984 106.292 6.5498 106.005 6.34473C105.724 6.13379 105.363 5.99609 104.924 5.93164L105.056 5.22852ZM116.077 9.75488C116.317 9.96582 116.502 10.209 116.631 10.4844C116.76 10.7598 116.824 11.0967 116.824 11.4951C116.824 12.2979 116.522 12.9541 115.919 13.4639C115.321 13.9736 114.545 14.2285 113.59 14.2285C113.086 14.2285 112.62 14.1377 112.192 13.9561C111.771 13.7744 111.469 13.6074 111.287 13.4551L111.111 14.0264H110.452L110.364 11.0117H110.971C111.018 11.2402 111.117 11.5068 111.27 11.8115C111.422 12.1162 111.606 12.3916 111.823 12.6377C112.052 12.8955 112.324 13.1123 112.641 13.2881C112.963 13.4639 113.323 13.5518 113.722 13.5518C114.284 13.5518 114.718 13.4258 115.022 13.1738C115.327 12.916 115.479 12.5498 115.479 12.0752C115.479 11.8291 115.43 11.6182 115.33 11.4424C115.236 11.2607 115.096 11.1025 114.908 10.9678C114.715 10.833 114.478 10.7129 114.196 10.6074C113.915 10.4961 113.602 10.3877 113.256 10.2822C112.98 10.2002 112.673 10.0889 112.333 9.94824C111.999 9.80176 111.712 9.63184 111.472 9.43848C111.214 9.2334 111.003 8.98145 110.839 8.68262C110.675 8.38379 110.593 8.03223 110.593 7.62793C110.593 6.91895 110.856 6.31836 111.384 5.82617C111.911 5.33398 112.617 5.08789 113.502 5.08789C113.842 5.08789 114.188 5.13184 114.539 5.21973C114.896 5.30762 115.187 5.41309 115.409 5.53613L115.611 5.0791H116.244L116.376 7.86523H115.77C115.646 7.24414 115.38 6.74023 114.97 6.35352C114.565 5.96094 114.07 5.76465 113.484 5.76465C113.004 5.76465 112.626 5.88477 112.351 6.125C112.075 6.36523 111.938 6.65527 111.938 6.99512C111.938 7.25879 111.981 7.47852 112.069 7.6543C112.163 7.83008 112.301 7.97949 112.482 8.10254C112.658 8.21973 112.878 8.33105 113.142 8.43652C113.411 8.53613 113.742 8.65039 114.135 8.7793C114.521 8.90234 114.885 9.0459 115.225 9.20996C115.57 9.37402 115.854 9.55566 116.077 9.75488ZM123.231 8.76172C123.231 11.1523 122.774 13.0537 121.86 14.4658C120.952 15.8779 119.698 16.6836 118.099 16.8828V16.1621C119.247 15.9512 120.108 15.2275 120.683 13.9912C121.257 12.749 121.544 11.0117 121.544 8.7793C121.544 6.43555 121.251 4.64844 120.665 3.41797C120.079 2.1875 119.224 1.46973 118.099 1.26465V0.535156C119.698 0.746094 120.952 1.56348 121.86 2.9873C122.774 4.40527 123.231 6.33008 123.231 8.76172ZM133.453 5.87012C133.189 5.91699 132.938 6.01367 132.697 6.16016C132.463 6.30078 132.261 6.55273 132.091 6.91602C131.745 7.70117 131.388 8.52148 131.019 9.37695C130.649 10.2266 130.266 11.1201 129.867 12.0576C129.75 12.3271 129.624 12.6465 129.489 13.0156C129.36 13.3848 129.24 13.7393 129.129 14.0791H128.443C127.887 12.7021 127.374 11.4482 126.905 10.3174C126.437 9.18066 125.95 8.01758 125.446 6.82812C125.329 6.55859 125.139 6.35059 124.875 6.2041C124.617 6.05176 124.356 5.95508 124.093 5.91406V5.33398H128.101V5.94922C127.925 5.95508 127.705 5.99316 127.441 6.06348C127.178 6.12793 127.046 6.21875 127.046 6.33594C127.046 6.35352 127.061 6.40039 127.09 6.47656C127.119 6.54688 127.148 6.62891 127.178 6.72266C127.418 7.32031 127.758 8.15527 128.197 9.22754C128.637 10.2998 128.994 11.1641 129.27 11.8203C129.48 11.3164 129.744 10.6895 130.061 9.93945C130.383 9.18945 130.729 8.35156 131.098 7.42578C131.156 7.26758 131.212 7.12109 131.265 6.98633C131.317 6.8457 131.344 6.70508 131.344 6.56445C131.344 6.46484 131.294 6.37695 131.194 6.30078C131.101 6.21875 130.986 6.14844 130.852 6.08984C130.717 6.03125 130.585 5.9873 130.456 5.95801C130.327 5.92871 130.222 5.9082 130.14 5.89648V5.33398H133.453V5.87012ZM138.05 14H133.857V13.4199C133.992 13.4082 134.13 13.3965 134.271 13.3848C134.417 13.373 134.543 13.3496 134.648 13.3145C134.812 13.2617 134.933 13.1709 135.009 13.042C135.091 12.9072 135.132 12.7344 135.132 12.5234V7.1709C135.132 6.9834 135.088 6.81348 135 6.66113C134.918 6.50293 134.801 6.37109 134.648 6.26562C134.537 6.19531 134.376 6.13672 134.165 6.08984C133.954 6.03711 133.761 6.00488 133.585 5.99316V5.42188L136.644 5.22852L136.767 5.35156V12.418C136.767 12.623 136.805 12.793 136.881 12.9277C136.963 13.0625 137.089 13.1621 137.259 13.2266C137.388 13.2793 137.514 13.3232 137.637 13.3584C137.76 13.3877 137.897 13.4082 138.05 13.4199V14ZM136.942 1.80957C136.942 2.14355 136.831 2.43652 136.608 2.68848C136.392 2.93457 136.122 3.05762 135.8 3.05762C135.501 3.05762 135.24 2.94043 135.018 2.70605C134.801 2.46582 134.692 2.19336 134.692 1.88867C134.692 1.56641 134.801 1.28516 135.018 1.04492C135.24 0.804688 135.501 0.68457 135.8 0.68457C136.134 0.68457 136.406 0.798828 136.617 1.02734C136.834 1.25 136.942 1.51074 136.942 1.80957ZM153.132 9.63184H149.168V13.5957H148.052V9.63184H144.088V8.5332H148.052V4.56934H149.168V8.5332H153.132V9.63184ZM162.606 5.22852C163.116 5.26953 163.611 5.38965 164.092 5.58887C164.572 5.78809 164.997 6.06641 165.366 6.42383C165.741 6.78711 166.046 7.25 166.28 7.8125C166.515 8.375 166.632 9.04297 166.632 9.81641C166.632 10.4434 166.55 11.0322 166.386 11.583C166.222 12.1279 165.99 12.5967 165.691 12.9893C165.387 13.3994 165.029 13.7158 164.619 13.9385C164.215 14.1553 163.749 14.2637 163.222 14.2637C162.712 14.2637 162.258 14.1348 161.859 13.877C161.461 13.6191 161.121 13.2588 160.84 12.7959C160.547 13.2646 160.207 13.6279 159.82 13.8857C159.439 14.1377 158.985 14.2637 158.458 14.2637C157.948 14.2637 157.482 14.1523 157.061 13.9297C156.645 13.7012 156.287 13.3877 155.988 12.9893C155.689 12.5967 155.458 12.1279 155.294 11.583C155.13 11.0322 155.048 10.4434 155.048 9.81641C155.048 9.04883 155.162 8.38965 155.391 7.83887C155.619 7.28809 155.927 6.81934 156.313 6.43262C156.694 6.06348 157.122 5.78223 157.597 5.58887C158.077 5.39551 158.569 5.27539 159.073 5.22852L159.205 5.93164C158.783 5.98438 158.423 6.125 158.124 6.35352C157.825 6.57617 157.582 6.86328 157.395 7.21484C157.219 7.54883 157.084 7.97949 156.99 8.50684C156.902 9.02832 156.858 9.56445 156.858 10.1152C156.858 10.5605 156.888 10.9854 156.946 11.3896C157.011 11.7939 157.107 12.1572 157.236 12.4795C157.371 12.8018 157.55 13.0596 157.772 13.2529C157.995 13.4463 158.262 13.543 158.572 13.543C159.053 13.543 159.413 13.3906 159.653 13.0859C159.894 12.7754 160.014 12.2393 160.014 11.4775V8.23438H161.666V11.4775C161.666 12.2217 161.783 12.752 162.018 13.0684C162.258 13.3848 162.621 13.543 163.107 13.543C163.424 13.543 163.693 13.4463 163.916 13.2529C164.139 13.0537 164.314 12.7959 164.443 12.4795C164.584 12.1338 164.681 11.7705 164.733 11.3896C164.792 11.0029 164.821 10.5781 164.821 10.1152C164.821 9.52344 164.777 8.98145 164.689 8.48926C164.607 7.99707 164.473 7.57227 164.285 7.21484C164.086 6.83984 163.843 6.5498 163.556 6.34473C163.274 6.13379 162.914 5.99609 162.475 5.93164L162.606 5.22852ZM176.115 13.8418C175.84 13.9414 175.597 14.0205 175.386 14.0791C175.181 14.1436 174.946 14.1758 174.683 14.1758C174.226 14.1758 173.859 14.0703 173.584 13.8594C173.314 13.6426 173.142 13.3291 173.065 12.9189H173.013C172.632 13.3408 172.222 13.6631 171.782 13.8857C171.349 14.1084 170.824 14.2197 170.209 14.2197C169.559 14.2197 169.022 14.0205 168.601 13.6221C168.185 13.2236 167.977 12.7021 167.977 12.0576C167.977 11.7236 168.023 11.4248 168.117 11.1611C168.211 10.8975 168.352 10.6602 168.539 10.4492C168.686 10.2734 168.879 10.1182 169.119 9.9834C169.359 9.84277 169.585 9.73145 169.796 9.64941C170.06 9.5498 170.593 9.36523 171.396 9.0957C172.204 8.82617 172.749 8.61523 173.03 8.46289V7.59277C173.03 7.5166 173.013 7.37012 172.978 7.15332C172.948 6.93652 172.881 6.73145 172.775 6.53809C172.658 6.32129 172.491 6.13379 172.274 5.97559C172.063 5.81152 171.762 5.72949 171.369 5.72949C171.1 5.72949 170.848 5.77637 170.613 5.87012C170.385 5.95801 170.224 6.05176 170.13 6.15137C170.13 6.26855 170.156 6.44141 170.209 6.66992C170.268 6.89844 170.297 7.10938 170.297 7.30273C170.297 7.50781 170.203 7.69531 170.016 7.86523C169.834 8.03516 169.579 8.12012 169.251 8.12012C168.958 8.12012 168.741 8.01758 168.601 7.8125C168.466 7.60156 168.398 7.36719 168.398 7.10938C168.398 6.83984 168.492 6.58203 168.68 6.33594C168.873 6.08984 169.122 5.87012 169.427 5.67676C169.69 5.5127 170.01 5.375 170.385 5.26367C170.76 5.14648 171.126 5.08789 171.483 5.08789C171.976 5.08789 172.403 5.12305 172.767 5.19336C173.136 5.25781 173.47 5.40137 173.769 5.62402C174.067 5.84082 174.293 6.13672 174.445 6.51172C174.604 6.88086 174.683 7.3584 174.683 7.94434C174.683 8.78223 174.674 9.52637 174.656 10.1768C174.639 10.8213 174.63 11.5273 174.63 12.2949C174.63 12.5234 174.668 12.7051 174.744 12.8398C174.826 12.9746 174.949 13.0889 175.113 13.1826C175.201 13.2354 175.339 13.2646 175.526 13.2705C175.72 13.2764 175.916 13.2793 176.115 13.2793V13.8418ZM173.048 9.20117C172.55 9.34766 172.113 9.49121 171.738 9.63184C171.363 9.77246 171.015 9.94824 170.692 10.1592C170.399 10.3584 170.168 10.5957 169.998 10.8711C169.828 11.1406 169.743 11.4629 169.743 11.8379C169.743 12.3242 169.869 12.6816 170.121 12.9102C170.379 13.1387 170.704 13.2529 171.097 13.2529C171.513 13.2529 171.879 13.1533 172.195 12.9541C172.512 12.749 172.778 12.5088 172.995 12.2334L173.048 9.20117ZM178.963 12.4619C179.25 11.8701 179.479 11.1494 179.648 10.2998C179.818 9.4502 179.903 8.55078 179.903 7.60156C179.903 7.42578 179.9 7.22363 179.895 6.99512C179.889 6.7666 179.88 6.57324 179.868 6.41504H179.323C179.013 6.41504 178.764 6.46777 178.576 6.57324C178.389 6.67871 178.233 6.81641 178.11 6.98633C178.011 7.12109 177.932 7.29395 177.873 7.50488C177.82 7.71582 177.782 7.94434 177.759 8.19043H177.205C177.188 8.02637 177.173 7.86523 177.161 7.70703C177.149 7.54297 177.144 7.3584 177.144 7.15332C177.144 6.9541 177.182 6.75488 177.258 6.55566C177.334 6.35645 177.46 6.16016 177.636 5.9668C177.788 5.79102 177.996 5.64453 178.26 5.52734C178.523 5.4043 178.816 5.34277 179.139 5.34277H186.671V6.41504H184.693V12.1631C184.693 12.5146 184.802 12.7959 185.019 13.0068C185.241 13.2119 185.558 13.3145 185.968 13.3145C186.05 13.3145 186.146 13.3115 186.258 13.3057C186.375 13.2998 186.478 13.2939 186.565 13.2881V13.8506C186.29 13.9443 186.015 14.0234 185.739 14.0879C185.464 14.1523 185.121 14.1846 184.711 14.1846C184.154 14.1846 183.735 14.0146 183.454 13.6748C183.179 13.335 183.041 12.8721 183.041 12.2861V6.41504H180.729C180.735 6.56738 180.741 6.75488 180.747 6.97754C180.753 7.19434 180.756 7.42871 180.756 7.68066C180.756 8.40723 180.688 9.20117 180.554 10.0625C180.425 10.9238 180.231 11.665 179.974 12.2861C179.722 12.8955 179.435 13.3672 179.112 13.7012C178.79 14.0293 178.415 14.1934 177.987 14.1934C177.636 14.1934 177.378 14.082 177.214 13.8594C177.05 13.6309 176.968 13.3936 176.968 13.1475C176.968 12.9365 177.044 12.7314 177.196 12.5322C177.354 12.3271 177.586 12.2246 177.891 12.2246C178.078 12.2246 178.271 12.2568 178.471 12.3213C178.676 12.3799 178.84 12.4268 178.963 12.4619ZM192.015 14H187.822V13.4199C187.957 13.4082 188.095 13.3965 188.235 13.3848C188.382 13.373 188.508 13.3496 188.613 13.3145C188.777 13.2617 188.897 13.1709 188.974 13.042C189.056 12.9072 189.097 12.7344 189.097 12.5234V7.1709C189.097 6.9834 189.053 6.81348 188.965 6.66113C188.883 6.50293 188.766 6.37109 188.613 6.26562C188.502 6.19531 188.341 6.13672 188.13 6.08984C187.919 6.03711 187.726 6.00488 187.55 5.99316V5.42188L190.608 5.22852L190.731 5.35156V12.418C190.731 12.623 190.77 12.793 190.846 12.9277C190.928 13.0625 191.054 13.1621 191.224 13.2266C191.353 13.2793 191.479 13.3232 191.602 13.3584C191.725 13.3877 191.862 13.4082 192.015 13.4199V14ZM190.907 1.80957C190.907 2.14355 190.796 2.43652 190.573 2.68848C190.356 2.93457 190.087 3.05762 189.765 3.05762C189.466 3.05762 189.205 2.94043 188.982 2.70605C188.766 2.46582 188.657 2.19336 188.657 1.88867C188.657 1.56641 188.766 1.28516 188.982 1.04492C189.205 0.804688 189.466 0.68457 189.765 0.68457C190.099 0.68457 190.371 0.798828 190.582 1.02734C190.799 1.25 190.907 1.51074 190.907 1.80957ZM207.097 9.63184H203.133V13.5957H202.017V9.63184H198.053V8.5332H202.017V4.56934H203.133V8.5332H207.097V9.63184ZM216.571 5.22852C217.081 5.26953 217.576 5.38965 218.057 5.58887C218.537 5.78809 218.962 6.06641 219.331 6.42383C219.706 6.78711 220.011 7.25 220.245 7.8125C220.479 8.375 220.597 9.04297 220.597 9.81641C220.597 10.4434 220.515 11.0322 220.351 11.583C220.187 12.1279 219.955 12.5967 219.656 12.9893C219.352 13.3994 218.994 13.7158 218.584 13.9385C218.18 14.1553 217.714 14.2637 217.187 14.2637C216.677 14.2637 216.223 14.1348 215.824 13.877C215.426 13.6191 215.086 13.2588 214.805 12.7959C214.512 13.2646 214.172 13.6279 213.785 13.8857C213.404 14.1377 212.95 14.2637 212.423 14.2637C211.913 14.2637 211.447 14.1523 211.025 13.9297C210.609 13.7012 210.252 13.3877 209.953 12.9893C209.654 12.5967 209.423 12.1279 209.259 11.583C209.095 11.0322 209.013 10.4434 209.013 9.81641C209.013 9.04883 209.127 8.38965 209.355 7.83887C209.584 7.28809 209.892 6.81934 210.278 6.43262C210.659 6.06348 211.087 5.78223 211.562 5.58887C212.042 5.39551 212.534 5.27539 213.038 5.22852L213.17 5.93164C212.748 5.98438 212.388 6.125 212.089 6.35352C211.79 6.57617 211.547 6.86328 211.359 7.21484C211.184 7.54883 211.049 7.97949 210.955 8.50684C210.867 9.02832 210.823 9.56445 210.823 10.1152C210.823 10.5605 210.853 10.9854 210.911 11.3896C210.976 11.7939 211.072 12.1572 211.201 12.4795C211.336 12.8018 211.515 13.0596 211.737 13.2529C211.96 13.4463 212.227 13.543 212.537 13.543C213.018 13.543 213.378 13.3906 213.618 13.0859C213.858 12.7754 213.979 12.2393 213.979 11.4775V8.23438H215.631V11.4775C215.631 12.2217 215.748 12.752 215.982 13.0684C216.223 13.3848 216.586 13.543 217.072 13.543C217.389 13.543 217.658 13.4463 217.881 13.2529C218.104 13.0537 218.279 12.7959 218.408 12.4795C218.549 12.1338 218.646 11.7705 218.698 11.3896C218.757 11.0029 218.786 10.5781 218.786 10.1152C218.786 9.52344 218.742 8.98145 218.654 8.48926C218.572 7.99707 218.438 7.57227 218.25 7.21484C218.051 6.83984 217.808 6.5498 217.521 6.34473C217.239 6.13379 216.879 5.99609 216.439 5.93164L216.571 5.22852ZM227.593 9.75488C227.833 9.96582 228.018 10.209 228.146 10.4844C228.275 10.7598 228.34 11.0967 228.34 11.4951C228.34 12.2979 228.038 12.9541 227.435 13.4639C226.837 13.9736 226.061 14.2285 225.105 14.2285C224.602 14.2285 224.136 14.1377 223.708 13.9561C223.286 13.7744 222.984 13.6074 222.803 13.4551L222.627 14.0264H221.968L221.88 11.0117H222.486C222.533 11.2402 222.633 11.5068 222.785 11.8115C222.938 12.1162 223.122 12.3916 223.339 12.6377C223.567 12.8955 223.84 13.1123 224.156 13.2881C224.479 13.4639 224.839 13.5518 225.237 13.5518C225.8 13.5518 226.233 13.4258 226.538 13.1738C226.843 12.916 226.995 12.5498 226.995 12.0752C226.995 11.8291 226.945 11.6182 226.846 11.4424C226.752 11.2607 226.611 11.1025 226.424 10.9678C226.23 10.833 225.993 10.7129 225.712 10.6074C225.431 10.4961 225.117 10.3877 224.771 10.2822C224.496 10.2002 224.188 10.0889 223.849 9.94824C223.515 9.80176 223.228 9.63184 222.987 9.43848C222.729 9.2334 222.519 8.98145 222.354 8.68262C222.19 8.38379 222.108 8.03223 222.108 7.62793C222.108 6.91895 222.372 6.31836 222.899 5.82617C223.427 5.33398 224.133 5.08789 225.018 5.08789C225.357 5.08789 225.703 5.13184 226.055 5.21973C226.412 5.30762 226.702 5.41309 226.925 5.53613L227.127 5.0791H227.76L227.892 7.86523H227.285C227.162 7.24414 226.896 6.74023 226.485 6.35352C226.081 5.96094 225.586 5.76465 225 5.76465C224.52 5.76465 224.142 5.88477 223.866 6.125C223.591 6.36523 223.453 6.65527 223.453 6.99512C223.453 7.25879 223.497 7.47852 223.585 7.6543C223.679 7.83008 223.816 7.97949 223.998 8.10254C224.174 8.21973 224.394 8.33105 224.657 8.43652C224.927 8.53613 225.258 8.65039 225.65 8.7793C226.037 8.90234 226.4 9.0459 226.74 9.20996C227.086 9.37402 227.37 9.55566 227.593 9.75488ZM235.705 12.418C235.91 12.0254 236.057 11.6064 236.145 11.1611C236.238 10.7158 236.285 10.2061 236.285 9.63184C236.285 9.18066 236.241 8.71191 236.153 8.22559C236.071 7.7334 235.945 7.32617 235.775 7.00391C235.582 6.64648 235.339 6.36816 235.046 6.16895C234.753 5.96387 234.372 5.86133 233.903 5.86133C233.429 5.86133 233.033 5.97559 232.717 6.2041C232.406 6.42676 232.157 6.7168 231.97 7.07422C231.794 7.40234 231.665 7.78613 231.583 8.22559C231.501 8.65918 231.46 9.11328 231.46 9.58789C231.46 10.1035 231.504 10.6074 231.592 11.0996C231.686 11.5859 231.832 12.0166 232.031 12.3916C232.23 12.7666 232.479 13.0625 232.778 13.2793C233.083 13.4902 233.458 13.5957 233.903 13.5957C234.308 13.5957 234.662 13.4902 234.967 13.2793C235.271 13.0625 235.518 12.7754 235.705 12.418ZM235.679 5.34277H239.15V6.41504H236.637V6.45898C237.117 6.85742 237.48 7.33203 237.727 7.88281C237.979 8.42773 238.104 9.03125 238.104 9.69336C238.104 10.2852 238.008 10.8594 237.814 11.416C237.627 11.9727 237.352 12.459 236.988 12.875C236.613 13.3027 236.165 13.6426 235.644 13.8945C235.122 14.1406 234.504 14.2637 233.789 14.2637C233.238 14.2637 232.714 14.1611 232.216 13.9561C231.718 13.7451 231.275 13.4404 230.889 13.042C230.508 12.6494 230.203 12.1719 229.975 11.6094C229.752 11.041 229.641 10.4053 229.641 9.70215C229.641 8.99902 229.74 8.375 229.939 7.83008C230.139 7.2793 230.426 6.79297 230.801 6.37109C231.164 5.97266 231.615 5.65918 232.154 5.43066C232.693 5.20215 233.282 5.08789 233.921 5.08789C234.255 5.08789 234.551 5.1084 234.809 5.14941C235.072 5.19043 235.362 5.25488 235.679 5.34277ZM244.187 14H239.994V13.4199C240.129 13.4082 240.267 13.3965 240.407 13.3848C240.554 13.373 240.68 13.3496 240.785 13.3145C240.949 13.2617 241.069 13.1709 241.146 13.042C241.228 12.9072 241.269 12.7344 241.269 12.5234V7.1709C241.269 6.9834 241.225 6.81348 241.137 6.66113C241.055 6.50293 240.938 6.37109 240.785 6.26562C240.674 6.19531 240.513 6.13672 240.302 6.08984C240.091 6.03711 239.897 6.00488 239.722 5.99316V5.42188L242.78 5.22852L242.903 5.35156V12.418C242.903 12.623 242.941 12.793 243.018 12.9277C243.1 13.0625 243.226 13.1621 243.396 13.2266C243.524 13.2793 243.65 13.3232 243.773 13.3584C243.896 13.3877 244.034 13.4082 244.187 13.4199V14ZM243.079 1.80957C243.079 2.14355 242.968 2.43652 242.745 2.68848C242.528 2.93457 242.259 3.05762 241.937 3.05762C241.638 3.05762 241.377 2.94043 241.154 2.70605C240.938 2.46582 240.829 2.19336 240.829 1.88867C240.829 1.56641 240.938 1.28516 241.154 1.04492C241.377 0.804688 241.638 0.68457 241.937 0.68457C242.271 0.68457 242.543 0.798828 242.754 1.02734C242.971 1.25 243.079 1.51074 243.079 1.80957Z" fill="black"/>
</svg>
