<svg width="254" height="16" viewBox="0 0 254 16" fill="none" xmlns="http://www.w3.org/2000/svg">
<g clip-path="url(#clip0)">
<path d="M7.48353 5.87158C7.48353 6.01837 7.48353 6.16515 7.48353 6.45873C7.3368 6.60552 7.3368 6.75231 7.19006 6.8991C7.19006 7.04589 7.04333 7.19268 6.89659 7.19268C6.74985 7.33947 6.60312 7.33947 6.30965 7.33947C6.01618 7.33947 5.86944 7.33947 5.7227 7.19268C5.57597 6.8991 5.42923 6.75231 5.42923 6.60552C5.42923 6.45873 5.42923 6.16515 5.57597 6.01837C5.7227 5.72479 5.7227 5.578 5.86944 5.28442C5.86944 5.28442 5.7227 5.28442 5.57597 5.28442C5.42923 5.28442 5.13576 5.578 4.98902 5.578C4.69555 5.72479 4.40208 5.87158 4.10861 6.16515C3.96187 6.31194 3.52166 6.60552 3.22819 7.04589L1.90757 13.0642H0.293472L1.6141 7.48626C1.6141 7.33947 1.6141 7.19268 1.76083 6.8991C1.76083 6.60552 1.90757 6.45873 1.90757 6.31194C1.90757 6.01837 1.90757 5.72479 1.76083 5.72479C1.46736 5.578 1.32062 5.578 0.880416 5.578C0.73368 5.578 0.586944 5.578 0.440208 5.578C0.293472 5.578 0.146736 5.72479 0 5.72479L0.146736 5.13763C0.586944 4.99084 1.02715 4.84405 1.32062 4.69726C1.6141 4.55048 1.90757 4.55048 2.20104 4.55048C2.64125 4.55048 2.93472 4.69726 3.22819 4.99084C3.37493 5.28442 3.52166 5.578 3.52166 6.16515C4.25534 5.578 4.69555 5.13763 5.13576 4.99084C5.42923 4.55048 5.7227 4.40369 6.16291 4.40369C6.30965 4.40369 6.45638 4.40369 6.74985 4.40369C6.89659 4.40369 7.04333 4.55048 7.19006 4.69726C7.19006 4.84405 7.3368 4.99084 7.3368 5.13763C7.48353 5.28442 7.48353 5.578 7.48353 5.87158Z" fill="black"/>
<path d="M10.2715 15.1193L10.1248 15.4129C9.8313 15.5597 9.53782 15.7064 9.24435 15.7064C9.09762 15.7064 8.80414 15.8532 8.65741 15.8532C8.36394 15.8532 8.07046 15.7064 7.92373 15.5597C7.77699 15.4129 7.63026 15.2661 7.63026 14.9725C7.63026 14.8257 7.63026 14.8257 7.63026 14.6789C7.63026 14.5321 7.63026 14.5321 7.77699 14.3853L8.36394 11.8899C8.36394 11.7431 8.36394 11.5964 8.51067 11.4496C8.51067 11.3028 8.51067 11.156 8.51067 11.0092C8.51067 10.8624 8.51067 10.7156 8.36394 10.5688C8.2172 10.422 8.36394 10.5688 8.07046 10.5688C7.92373 10.5688 7.92373 10.5688 7.77699 10.5688C7.63026 10.5688 7.48352 10.5688 7.48352 10.5688L7.63026 10.2753C7.92373 10.2753 8.07046 10.1285 8.36394 10.1285C8.65741 10.1285 8.80414 9.98168 8.95088 9.98168C9.24435 9.98168 9.53782 10.1285 9.68456 10.2753C9.8313 10.422 9.8313 10.5688 9.8313 10.8624C9.8313 10.8624 9.8313 11.0092 9.8313 11.156C9.8313 11.3028 9.8313 11.4496 9.8313 11.4496L9.09762 13.945C9.09762 14.0918 9.09762 14.2386 8.95088 14.3853C8.95088 14.5321 8.95088 14.6789 8.95088 14.6789C8.95088 14.8257 8.95088 14.9725 9.09762 15.1193C9.24435 15.2661 9.39109 15.2661 9.53782 15.2661C9.53782 15.2661 9.68456 15.2661 9.8313 15.2661C9.97803 15.1193 10.1248 15.1193 10.2715 15.1193ZM10.565 7.77984C10.565 7.92663 10.565 8.22021 10.4182 8.367C10.2715 8.51379 10.1248 8.66058 9.8313 8.66058C9.68456 8.66058 9.53782 8.51379 9.39109 8.367C9.24435 8.22021 9.09762 8.07342 9.09762 7.92663C9.09762 7.77984 9.09762 7.48627 9.24435 7.33948C9.39109 7.19269 9.53782 7.0459 9.68456 7.0459C9.8313 7.0459 10.1248 7.0459 10.2715 7.19269C10.565 7.48627 10.565 7.63305 10.565 7.77984Z" fill="black"/>
<path d="M27.1462 7.33947H18.4888V6.16516H27.1462V7.33947ZM27.1462 10.422H18.4888V9.39452H27.1462V10.422Z" fill="black"/>
<path d="M40.7926 0L40.6459 0.733945C39.9122 0.880734 39.1785 1.3211 38.5915 1.90826C38.0046 2.49541 37.4177 3.37615 36.8307 4.55046C36.3905 5.43119 36.097 6.6055 35.8036 7.77982C35.5101 8.95413 35.5101 10.1284 35.5101 11.3028C35.5101 12.4771 35.6568 13.3578 36.097 14.0917C36.5372 14.8257 36.9775 15.2661 37.8579 15.4128L37.7111 16C36.5372 15.8532 35.6568 15.2661 34.9231 14.3853C34.3362 13.5046 33.896 12.1835 33.896 10.7156C33.896 7.92661 34.6297 5.43119 35.9503 3.52294C37.2709 1.3211 38.885 0.293578 40.7926 0Z" fill="black"/>
<path d="M45.7817 3.66974C45.6349 4.11011 45.4882 4.55047 45.3415 5.13763C45.1947 5.72478 45.048 6.01836 45.048 6.31194L43.8741 11.4496V11.5963V11.7431C43.8741 11.8899 43.8741 12.0367 44.0208 12.1835C44.0208 12.3303 44.1676 12.3303 44.3143 12.3303C44.4611 12.3303 44.6078 12.4771 44.9013 12.4771C45.1947 12.4771 45.4882 12.6239 45.6349 12.6239L45.4882 13.0642H39.7655L39.9122 12.4771C40.059 12.4771 40.3524 12.4771 40.7927 12.4771C41.2329 12.4771 41.3796 12.3303 41.5263 12.3303C41.6731 12.3303 41.8198 12.1835 41.9665 12.0367C42.1133 11.8899 42.26 11.7431 42.26 11.4496L43.7274 5.28442H41.5263L41.6731 4.55047H42.1133C42.7002 4.55047 43.2872 4.40368 43.7274 4.25689C44.3143 4.11011 44.6078 3.81653 45.048 3.52295H45.7817V3.66974Z" fill="black"/>
<path d="M64.5638 8.80731H55.7596V7.77979H64.5638V8.80731Z" fill="black"/>
<path d="M82.9058 5.57794C83.1993 5.87152 83.4928 6.16509 83.6395 6.60546C83.7862 7.04583 83.933 7.4862 83.933 8.07335C83.933 8.66051 83.7862 9.39445 83.6395 9.98161C83.4928 10.5688 83.1993 11.1559 82.7591 11.7431C82.3189 12.1834 81.8787 12.6238 81.4385 12.9174C80.9982 13.211 80.4113 13.3578 79.6776 13.3578C79.2374 13.3578 78.7972 13.211 78.357 12.9174C77.9168 12.6238 77.7701 12.3302 77.4766 11.8899C77.0364 12.3302 76.7429 12.7706 76.3027 12.9174C75.8625 13.211 75.4223 13.3578 74.9821 13.3578C74.2484 13.3578 73.5147 13.0642 73.0745 12.477C72.6343 11.8899 72.3408 11.1559 72.3408 10.1284C72.3408 9.24766 72.4876 8.36693 72.781 7.77977C73.0745 7.04583 73.5147 6.45867 73.9549 6.01831C74.3951 5.57794 74.9821 5.28436 75.569 4.99078C76.156 4.6972 76.7429 4.55042 77.3298 4.55042V5.28436C76.3027 5.43115 75.569 6.01831 74.9821 7.04583C74.3951 8.07335 74.1017 9.39445 74.1017 10.7156C74.1017 11.3027 74.2484 11.7431 74.3951 12.1834C74.5419 12.6238 74.8353 12.7706 75.2755 12.7706C75.7157 12.7706 76.156 12.6238 76.4494 12.3302C76.7429 12.0367 76.8896 11.4495 77.0364 10.7156L77.7701 7.4862H79.3841L78.6505 10.5688C78.6505 10.7156 78.6505 10.8623 78.6505 11.0091C78.6505 11.1559 78.6505 11.3027 78.6505 11.4495C78.6505 11.8899 78.7972 12.1834 78.9439 12.3302C79.0907 12.477 79.3842 12.6238 79.8244 12.6238C80.2646 12.6238 80.558 12.477 80.8515 12.1834C81.145 11.8899 81.4385 11.4495 81.5852 11.0091C81.7319 10.422 81.8787 9.98161 82.0254 9.39445C82.1721 8.8073 82.1721 8.36693 82.1721 7.77977C82.1721 7.04583 82.0254 6.45867 81.7319 6.01831C81.4385 5.57794 80.9982 5.28436 80.4113 5.13757L80.7048 4.55042C81.145 4.55042 81.5852 4.6972 81.8787 4.84399C82.3189 4.99078 82.6123 5.28436 82.9058 5.57794Z" fill="black"/>
<path d="M86.5743 14.9725C86.4275 14.9725 86.2808 15.1192 86.2808 15.266C86.2808 15.4128 85.9873 15.4128 85.8406 15.5596C85.6939 15.7064 85.5471 15.7064 85.4004 15.8532C85.2537 16 85.1069 16 84.8134 16C84.2265 16 83.7863 15.8532 83.4928 15.4128C83.1994 14.9725 83.0526 14.5321 83.0526 13.7981C83.0526 13.3578 83.1993 12.9174 83.3461 12.477C83.4928 12.0367 83.7863 11.5963 84.0798 11.3027C84.3732 11.0092 84.6667 10.7156 85.1069 10.422C85.5471 10.2752 85.9873 10.1284 86.2808 10.1284C86.5743 10.1284 86.8677 10.1284 87.0145 10.2752C87.3079 10.2752 87.4547 10.422 87.6014 10.5688L88.6286 10.2752V10.422L87.7482 14.0917C87.7482 14.2385 87.7482 14.3853 87.6014 14.5321C87.6014 14.6789 87.6014 14.8257 87.6014 14.9725C87.6014 15.1192 87.6014 15.266 87.7482 15.4128C87.8949 15.5596 88.0416 15.5596 88.1884 15.5596C88.1884 15.5596 88.3351 15.5596 88.4818 15.5596C88.6286 15.5596 88.7753 15.5596 88.7753 15.4128L88.6286 15.7064C88.3351 15.8532 88.0416 16 87.8949 16C87.7482 16 87.4547 16.1468 87.3079 16.1468C87.0145 16.1468 86.8677 16 86.721 15.8532C86.5743 15.4128 86.5743 15.266 86.5743 14.9725ZM87.3079 11.4495C87.3079 11.3027 87.3079 11.1559 87.3079 11.1559L87.1612 10.8624C87.0145 10.7156 87.0145 10.7156 86.8677 10.5688C86.721 10.422 86.5743 10.422 86.2808 10.422C85.9873 10.422 85.6939 10.5688 85.4004 10.7156C85.1069 10.8624 84.9602 11.1559 84.6667 11.4495C84.52 11.7431 84.3732 12.0367 84.2265 12.477C84.0798 12.9174 84.0798 13.3578 84.0798 13.7981C84.0798 14.0917 84.0798 14.2385 84.0798 14.3853C84.0798 14.5321 84.2265 14.6789 84.2265 14.8257C84.2265 14.9725 84.3732 15.1192 84.52 15.1192C84.6667 15.266 84.8134 15.266 85.1069 15.266C85.2536 15.266 85.5471 15.266 85.8406 15.1192C86.1341 14.9725 86.2808 14.8257 86.5743 14.5321L87.3079 11.4495Z" fill="black"/>
<path d="M104.036 8.80731H95.3784V7.77979H104.036V8.80731Z" fill="black"/>
<path d="M122.378 5.57794C122.671 5.87152 122.965 6.16509 123.111 6.60546C123.258 7.04583 123.405 7.4862 123.405 8.07335C123.405 8.66051 123.258 9.39445 123.111 9.98161C122.965 10.5688 122.671 11.1559 122.231 11.7431C121.791 12.1834 121.351 12.6238 120.91 12.9174C120.47 13.211 119.883 13.3578 119.15 13.3578C118.709 13.3578 118.269 13.211 117.829 12.9174C117.389 12.6238 117.242 12.3302 116.949 11.8899C116.508 12.3302 116.215 12.7706 115.775 12.9174C115.334 13.211 114.894 13.3578 114.454 13.3578C113.72 13.3578 112.987 13.0642 112.546 12.477C112.106 11.8899 111.813 11.1559 111.813 10.1284C111.813 9.24766 111.959 8.36693 112.253 7.77977C112.546 7.04583 112.987 6.45867 113.427 6.01831C113.867 5.57794 114.454 5.28436 115.041 4.99078C115.628 4.6972 116.215 4.55042 116.802 4.55042V5.28436C115.921 5.43115 115.041 6.01831 114.454 7.04583C113.867 8.07335 113.574 9.39445 113.574 10.7156C113.574 11.3027 113.72 11.7431 113.867 12.1834C114.014 12.6238 114.307 12.7706 114.747 12.7706C115.188 12.7706 115.628 12.6238 115.921 12.3302C116.215 12.0367 116.362 11.4495 116.508 10.7156L117.242 7.63298H118.856L118.122 10.7156C118.122 10.8623 118.122 11.0091 118.122 11.1559C118.122 11.3027 118.122 11.4495 118.122 11.5963C118.122 12.0367 118.269 12.3302 118.416 12.477C118.563 12.6238 118.856 12.7706 119.296 12.7706C119.736 12.7706 120.03 12.6238 120.323 12.3302C120.617 12.0367 120.91 11.5963 121.057 11.1559C121.204 10.5688 121.351 10.1284 121.497 9.54124C121.644 8.95409 121.644 8.51372 121.644 7.92656C121.644 7.19262 121.497 6.60546 121.204 6.16509C120.91 5.72473 120.47 5.43115 119.883 5.28436L120.177 4.6972C120.617 4.6972 121.057 4.84399 121.351 4.99078C121.791 4.99078 122.084 5.28436 122.378 5.57794Z" fill="black"/>
<path d="M124.139 16C123.552 16 123.112 15.8532 122.671 15.7064C122.231 15.5596 122.084 15.266 122.084 14.9725C122.084 14.8257 122.084 14.6789 122.231 14.5321C122.378 14.3853 122.525 14.3853 122.671 14.3853C122.818 14.3853 122.965 14.3853 123.112 14.5321C123.258 14.5321 123.258 14.6789 123.258 14.8257C123.258 14.9725 123.405 14.9725 123.405 15.1192C123.405 15.266 123.552 15.4128 123.552 15.4128C123.552 15.4128 123.698 15.5596 123.845 15.5596C123.992 15.5596 124.139 15.7064 124.285 15.7064C124.726 15.7064 125.019 15.5596 125.166 15.4128C125.313 15.266 125.459 14.9725 125.459 14.5321C125.459 14.2385 125.313 14.0917 125.166 13.9449C125.019 13.7981 124.726 13.6514 124.285 13.5046C124.139 13.5046 123.992 13.3578 123.845 13.3578C123.698 13.211 123.552 13.211 123.405 13.0642C123.258 12.9174 123.112 12.7706 123.112 12.6238C123.112 12.477 122.818 12.0367 122.818 11.7431C122.818 11.3027 122.965 10.8624 123.405 10.422C123.845 10.1284 124.432 9.83484 125.019 9.83484C125.166 9.83484 125.313 9.83484 125.459 9.83484C125.606 9.83484 125.753 9.83484 126.046 9.98163C126.193 9.98163 126.34 10.1284 126.486 10.2752C126.633 10.422 126.633 10.5688 126.633 10.7156C126.633 10.8624 126.633 11.0092 126.486 11.1559C126.34 11.3027 126.193 11.3027 126.046 11.3027C125.899 11.3027 125.753 11.3027 125.753 11.1559C125.606 11.1559 125.606 11.0092 125.459 10.8624C125.313 10.7156 125.313 10.7156 125.313 10.5688C125.313 10.422 125.166 10.2752 125.166 10.2752H125.019C125.019 10.2752 124.872 10.2752 124.726 10.2752C124.285 10.2752 124.139 10.422 123.845 10.5688C123.552 10.7156 123.552 11.0092 123.552 11.3027C123.552 11.5963 123.698 11.7431 123.845 11.8899C123.992 12.0367 124.285 12.1835 124.726 12.3303C125.313 12.477 125.606 12.7706 125.899 12.9174C126.193 13.211 126.193 13.5046 126.193 13.7981C126.193 14.3853 125.899 14.8257 125.459 15.266C125.313 15.7064 124.726 16 124.139 16Z" fill="black"/>
<path d="M134.557 5.2844C134.557 8.07339 133.823 10.5688 132.503 12.4771C131.182 14.5321 129.568 15.5596 127.66 15.8532L127.807 15.1193C128.541 14.9725 129.274 14.5321 129.861 13.945C130.448 13.3578 131.035 12.4771 131.622 11.3028C132.062 10.422 132.356 9.24771 132.649 8.07339C132.943 6.89908 132.943 5.72477 132.943 4.55046C132.943 3.37615 132.796 2.49541 132.356 1.76147C131.916 1.02752 131.475 0.587156 130.595 0.440367L130.888 0C132.062 0.146789 132.943 0.733945 133.676 1.61468C134.263 2.49541 134.557 3.66972 134.557 5.2844Z" fill="black"/>
<path d="M144.095 6.01837C144.095 6.8991 143.948 7.77983 143.654 8.66057C143.361 9.5413 143.068 10.2752 142.627 11.0092C142.187 11.7431 141.6 12.3303 140.866 12.7707C140.133 13.211 139.546 13.3578 138.812 13.3578C138.079 13.3578 137.492 13.211 137.051 12.7707C136.611 12.3303 136.318 11.7431 136.318 11.156C136.318 11.0092 136.318 10.8624 136.318 10.7156C136.318 10.5688 136.318 10.422 136.318 10.422L137.051 7.63304C137.051 7.33947 137.198 7.19268 137.198 7.04589C137.198 6.8991 137.198 6.60552 137.198 6.45873C137.198 6.16515 137.198 5.87158 137.051 5.87158C136.905 5.72479 136.758 5.72479 136.464 5.72479C136.318 5.72479 136.171 5.72479 136.024 5.72479C135.877 5.72479 135.731 5.87158 135.584 5.87158L135.731 5.28442C136.171 5.13763 136.611 4.99084 136.905 4.84405C137.198 4.69726 137.492 4.69726 137.785 4.69726C138.225 4.69726 138.519 4.84405 138.812 4.99084C138.959 5.13763 139.106 5.578 139.106 5.87158C139.106 6.01837 139.106 6.16515 139.106 6.31194C139.106 6.45873 139.106 6.60552 138.959 6.8991L138.079 10.1285C138.079 10.2752 137.932 10.5688 137.932 10.7156C137.932 10.8624 137.932 11.0092 137.932 11.156C137.932 11.4496 137.932 11.7431 138.079 11.8899C138.225 12.0367 138.225 12.1835 138.372 12.3303C138.519 12.4771 138.665 12.4771 138.812 12.4771C138.959 12.4771 139.106 12.4771 139.252 12.4771C139.693 12.4771 139.986 12.3303 140.426 12.0367C140.866 11.7431 141.16 11.4496 141.453 11.0092C141.747 10.5688 142.04 10.1285 142.334 9.5413C142.481 8.95415 142.627 8.36699 142.627 7.77983C142.627 7.48626 142.627 7.19268 142.481 7.04589C142.334 6.8991 142.334 6.75231 142.187 6.60552C142.04 6.45873 142.04 6.31194 141.894 6.16515C141.747 6.01837 141.747 5.72479 141.747 5.43121C141.747 5.13763 141.894 4.84405 142.04 4.69726C142.481 4.55048 142.774 4.40369 142.921 4.40369C143.214 4.40369 143.508 4.55048 143.654 4.84405C143.948 5.13763 144.095 5.578 144.095 6.01837Z" fill="black"/>
<path d="M146.589 15.1192L146.443 15.4128C146.149 15.5596 145.856 15.7064 145.562 15.7064C145.415 15.7064 145.122 15.8532 144.975 15.8532C144.682 15.8532 144.388 15.7064 144.241 15.5596C144.095 15.4128 143.948 15.266 143.948 14.9724C143.948 14.8257 143.948 14.8257 143.948 14.6789C143.948 14.5321 143.948 14.5321 144.095 14.3853L144.682 11.8899C144.682 11.7431 144.682 11.5963 144.828 11.4495C144.828 11.3027 144.828 11.1559 144.828 11.0091C144.828 10.8624 144.828 10.7156 144.682 10.5688C144.535 10.422 144.535 10.422 144.241 10.422C144.095 10.422 144.095 10.422 143.948 10.422C143.801 10.422 143.655 10.422 143.655 10.422L143.801 10.1284C144.095 9.98162 144.388 9.83483 144.535 9.83483C144.828 9.83483 144.975 9.68804 145.122 9.68804C145.415 9.68804 145.709 9.83483 145.856 9.98162C146.002 10.1284 146.002 10.2752 146.002 10.5688C146.002 10.5688 146.002 10.7156 146.002 10.8624C146.002 11.0091 146.002 11.1559 146.002 11.1559L145.415 13.6513C145.415 13.7981 145.415 13.9449 145.269 14.0917C145.269 14.2385 145.269 14.3853 145.269 14.3853C145.269 14.5321 145.269 14.6789 145.415 14.8257C145.562 14.9724 145.709 14.9724 145.856 14.9724C145.856 14.9724 146.002 14.9724 146.149 14.9724C146.443 15.1192 146.589 15.1192 146.589 15.1192ZM147.029 7.77978C147.029 7.92657 147.029 8.22015 146.883 8.36694C146.736 8.51373 146.589 8.66052 146.296 8.66052C146.149 8.66052 146.002 8.51373 145.856 8.36694C145.709 8.22015 145.709 8.07336 145.709 7.77978C145.709 7.63299 145.709 7.33942 145.856 7.19263C146.002 7.04584 146.149 6.89905 146.296 6.89905C146.443 6.89905 146.736 6.89905 146.883 7.04584C146.883 7.4862 147.029 7.63299 147.029 7.77978Z" fill="black"/>
<path d="M162.583 8.80729H158.768V12.6238H157.741V8.80729H153.926V7.77977H157.741V3.96326H158.768V7.77977H162.583V8.80729Z" fill="black"/>
<path d="M180.632 5.57794C180.925 5.87152 181.219 6.16509 181.366 6.60546C181.512 7.04583 181.659 7.4862 181.659 8.07335C181.659 8.66051 181.512 9.39445 181.366 9.98161C181.219 10.5688 180.925 11.1559 180.485 11.7431C180.045 12.1834 179.605 12.6238 179.165 12.9174C178.724 13.211 178.137 13.3578 177.404 13.3578C176.964 13.3578 176.523 13.211 176.083 12.9174C175.643 12.6238 175.496 12.3302 175.203 11.8899C174.763 12.3302 174.469 12.7706 174.029 12.9174C173.589 13.211 173.148 13.3578 172.708 13.3578C171.975 13.3578 171.241 13.0642 170.801 12.477C170.36 11.8899 170.067 11.1559 170.067 10.1284C170.067 9.24766 170.214 8.36693 170.507 7.77977C170.801 7.19262 171.241 6.45867 171.681 6.01831C172.121 5.57794 172.708 5.28436 173.295 4.99078C173.882 4.6972 174.469 4.55042 175.056 4.55042V5.28436C174.029 5.43115 173.295 6.01831 172.708 7.04583C172.121 8.07335 171.828 9.39445 171.828 10.7156C171.828 11.3027 171.975 11.7431 172.121 12.1834C172.268 12.6238 172.562 12.7706 173.002 12.7706C173.442 12.7706 173.882 12.6238 174.176 12.3302C174.469 12.0367 174.616 11.4495 174.763 10.7156L175.496 7.63298H177.11L176.377 10.7156C176.377 10.8623 176.377 11.0091 176.377 11.1559C176.377 11.3027 176.377 11.4495 176.377 11.5963C176.377 12.0367 176.523 12.3302 176.67 12.477C176.817 12.6238 177.11 12.7706 177.551 12.7706C177.991 12.7706 178.284 12.6238 178.578 12.3302C178.871 12.0367 179.165 11.5963 179.311 11.1559C179.458 10.5688 179.605 10.1284 179.752 9.54124C179.898 8.95409 179.898 8.51372 179.898 7.92656C179.898 7.19262 179.752 6.60546 179.458 6.16509C179.165 5.72473 178.724 5.43115 178.137 5.28436L178.431 4.6972C178.871 4.6972 179.311 4.84399 179.605 4.99078C180.045 4.99078 180.339 5.28436 180.632 5.57794Z" fill="black"/>
<path d="M184.3 14.9725C184.154 14.9725 184.007 15.1192 184.007 15.266C184.007 15.4128 183.713 15.4128 183.567 15.5596C183.42 15.7064 183.273 15.7064 183.126 15.8532C182.98 16 182.833 16 182.54 16C181.953 16 181.512 15.8532 181.219 15.4128C180.925 14.9725 180.779 14.5321 180.779 13.7981C180.779 13.3578 180.925 12.9174 181.072 12.477C181.219 12.0367 181.512 11.5963 181.806 11.3027C182.099 11.0092 182.393 10.7156 182.833 10.422C183.273 10.2752 183.713 10.1284 184.007 10.1284C184.3 10.1284 184.594 10.1284 184.741 10.2752C185.034 10.2752 185.181 10.422 185.327 10.5688L186.355 10.2752V10.422L185.474 14.0917C185.474 14.2385 185.474 14.3853 185.327 14.5321C185.327 14.6789 185.327 14.8257 185.327 14.9725C185.327 15.1192 185.327 15.266 185.474 15.4128C185.621 15.5596 185.768 15.5596 185.914 15.5596C185.914 15.5596 186.061 15.5596 186.208 15.5596C186.355 15.5596 186.501 15.5596 186.501 15.4128L186.355 15.7064C186.061 15.8532 185.768 16 185.621 16C185.474 16 185.181 16.1468 185.034 16.1468C184.741 16.1468 184.594 16 184.447 15.8532C184.3 15.4128 184.3 15.266 184.3 14.9725ZM185.034 11.4495C185.034 11.3027 185.034 11.1559 185.034 11.1559C185.034 11.0092 184.887 10.8624 184.887 10.8624C184.741 10.7156 184.741 10.7156 184.594 10.5688C184.447 10.422 184.3 10.422 184.154 10.422C183.86 10.422 183.567 10.5688 183.273 10.7156C182.98 10.8624 182.833 11.1559 182.54 11.4495C182.393 11.7431 182.246 12.0367 182.099 12.477C181.953 12.9174 181.953 13.3578 181.953 13.7981C181.953 14.0917 181.953 14.2385 181.953 14.3853C181.953 14.5321 182.099 14.6789 182.099 14.8257C182.099 14.9725 182.246 15.1192 182.393 15.1192C182.54 15.266 182.686 15.266 182.98 15.266C183.126 15.266 183.42 15.266 183.713 15.1192C184.007 14.9725 184.154 14.8257 184.447 14.5321L185.034 11.4495Z" fill="black"/>
<path d="M198.681 4.69727L198.387 5.72479H196.479L195.452 10.2752C195.452 10.422 195.306 10.7156 195.306 10.8624C195.306 11.156 195.159 11.3028 195.159 11.4496C195.159 11.7431 195.159 12.0367 195.306 12.1835C195.452 12.3303 195.746 12.3303 196.039 12.3303C196.186 12.3303 196.333 12.3303 196.479 12.3303C196.626 12.3303 196.773 12.1835 196.92 12.1835L196.773 12.7707C196.333 12.9174 195.893 13.0642 195.599 13.211C195.452 13.211 195.159 13.211 194.865 13.211C194.425 13.211 194.132 13.0642 193.838 12.9174C193.545 12.6239 193.545 12.3303 193.545 12.0367C193.545 11.8899 193.545 11.7431 193.545 11.5963C193.545 11.4496 193.545 11.3028 193.691 11.0092L194.865 5.72479H192.664C192.371 7.19268 192.077 8.51378 191.637 9.39451C191.197 10.422 190.904 11.156 190.463 11.7431C190.023 12.3303 189.73 12.6239 189.289 12.9174C188.996 13.211 188.556 13.211 188.262 13.211C187.969 13.211 187.675 13.0642 187.529 12.9174C187.382 12.7707 187.382 12.4771 187.382 12.3303C187.382 12.0367 187.529 11.8899 187.675 11.7431C187.822 11.5963 188.116 11.4496 188.409 11.4496C188.556 11.4496 188.702 11.4496 188.996 11.5963C189.143 11.5963 189.436 11.7431 189.583 11.8899C190.17 11.156 190.757 10.1285 191.197 8.95415C191.637 7.77983 191.784 6.75231 191.931 5.87158H191.49C191.197 5.87158 191.05 5.87158 190.757 6.01837C190.61 6.16516 190.317 6.31194 190.17 6.45873C190.023 6.60552 189.876 6.75231 189.73 7.04589C189.583 7.33947 189.583 7.48626 189.436 7.63305H188.849C188.849 7.48626 188.849 7.33947 188.849 7.19268C188.849 7.04589 188.849 6.8991 188.996 6.60552C189.143 6.16516 189.436 5.72479 189.876 5.43121C190.317 5.13763 190.757 4.84405 191.344 4.84405H198.681V4.69727Z" fill="black"/>
<path d="M200.441 15.1192L200.295 15.4128C200.001 15.5596 199.708 15.7064 199.414 15.7064C199.267 15.7064 198.974 15.8532 198.827 15.8532C198.534 15.8532 198.24 15.7064 198.094 15.5596C197.947 15.4128 197.8 15.266 197.8 14.9724C197.8 14.8257 197.8 14.8257 197.8 14.6789C197.8 14.5321 197.8 14.5321 197.947 14.3853L198.534 11.8899C198.534 11.7431 198.534 11.5963 198.68 11.4495C198.68 11.3027 198.68 11.1559 198.68 11.0091C198.68 10.8624 198.68 10.7156 198.534 10.5688C198.387 10.422 198.387 10.422 198.094 10.422C197.947 10.422 197.947 10.422 197.8 10.422C197.653 10.422 197.507 10.422 197.507 10.422L197.653 10.1284C197.947 9.98162 198.24 9.83483 198.387 9.83483C198.68 9.83483 198.827 9.68804 198.974 9.68804C199.267 9.68804 199.561 9.83483 199.708 9.98162C199.854 10.1284 199.854 10.2752 199.854 10.5688C199.854 10.5688 199.854 10.7156 199.854 10.8624C199.854 11.0091 199.854 11.1559 199.854 11.1559L199.267 13.6513C199.267 13.7981 199.267 13.9449 199.121 14.0917C199.121 14.2385 199.121 14.3853 199.121 14.3853C199.121 14.5321 199.121 14.6789 199.267 14.8257C199.414 14.9724 199.561 14.9724 199.708 14.9724C199.708 14.9724 199.854 14.9724 200.001 14.9724C200.295 15.1192 200.441 15.1192 200.441 15.1192ZM200.882 7.77978C200.882 7.92657 200.882 8.22015 200.735 8.36694C200.588 8.51373 200.441 8.66052 200.148 8.66052C200.001 8.66052 199.854 8.51373 199.708 8.36694C199.561 8.22015 199.561 8.07336 199.561 7.77978C199.561 7.63299 199.561 7.33942 199.708 7.19263C199.854 7.04584 200.001 6.89905 200.148 6.89905C200.295 6.89905 200.588 6.89905 200.735 7.04584C200.882 7.4862 200.882 7.63299 200.882 7.77978Z" fill="black"/>
<path d="M216.436 8.80729H212.62V12.6238H211.593V8.80729H207.778V7.77977H211.593V3.96326H212.62V7.77977H216.436V8.80729Z" fill="black"/>
<path d="M234.631 5.57794C234.924 5.87152 235.218 6.16509 235.364 6.60546C235.511 7.04583 235.658 7.4862 235.658 8.07335C235.658 8.66051 235.511 9.39445 235.364 9.98161C235.218 10.5688 234.924 11.1559 234.484 11.7431C234.044 12.1834 233.604 12.6238 233.163 12.9174C232.723 13.211 232.136 13.3578 231.403 13.3578C230.962 13.3578 230.522 13.211 230.082 12.9174C229.642 12.6238 229.495 12.3302 229.202 11.8899C228.761 12.3302 228.468 12.7706 228.028 12.9174C227.587 13.211 227.147 13.3578 226.707 13.3578C225.973 13.3578 225.24 13.0642 224.799 12.477C224.359 11.8899 224.066 11.1559 224.066 10.1284C224.066 9.24766 224.213 8.36693 224.506 7.77977C224.799 7.19262 225.24 6.45867 225.68 6.01831C226.12 5.57794 226.707 5.28436 227.294 4.99078C227.881 4.6972 228.468 4.55042 229.055 4.55042V5.28436C228.028 5.43115 227.294 6.01831 226.707 7.04583C226.12 8.07335 225.827 9.39445 225.827 10.7156C225.827 11.3027 225.973 11.7431 226.12 12.1834C226.267 12.6238 226.56 12.7706 227.001 12.7706C227.441 12.7706 227.881 12.6238 228.174 12.3302C228.468 12.0367 228.615 11.4495 228.761 10.7156L229.495 7.63298H231.109L230.375 10.7156C230.375 10.8623 230.375 11.0091 230.375 11.1559C230.375 11.3027 230.375 11.4495 230.375 11.5963C230.375 12.0367 230.522 12.3302 230.669 12.477C230.816 12.6238 231.109 12.7706 231.549 12.7706C231.99 12.7706 232.283 12.6238 232.576 12.3302C232.87 12.0367 233.163 11.5963 233.31 11.1559C233.457 10.5688 233.604 10.1284 233.75 9.54124C233.897 8.95409 233.897 8.51372 233.897 7.92656C233.897 7.19262 233.75 6.60546 233.457 6.16509C233.163 5.72473 232.723 5.43115 232.136 5.28436L232.43 4.6972C232.87 4.6972 233.31 4.84399 233.604 4.99078C233.897 4.99078 234.337 5.28436 234.631 5.57794Z" fill="black"/>
<path d="M236.245 16C235.658 16 235.218 15.8532 234.778 15.7064C234.337 15.5596 234.191 15.266 234.191 14.9725C234.191 14.8257 234.191 14.6789 234.337 14.5321C234.484 14.3853 234.631 14.3853 234.778 14.3853C234.924 14.3853 235.071 14.3853 235.218 14.5321C235.365 14.6789 235.365 14.6789 235.511 14.8257C235.511 14.9725 235.658 14.9725 235.658 15.1192C235.658 15.266 235.805 15.4128 235.805 15.4128C235.805 15.4128 235.951 15.5596 236.098 15.5596C236.245 15.5596 236.392 15.7064 236.538 15.7064C236.979 15.7064 237.272 15.5596 237.419 15.4128C237.566 15.266 237.712 14.9725 237.712 14.5321C237.712 14.2385 237.566 14.0917 237.419 13.9449C237.272 13.7981 236.979 13.6514 236.538 13.5046C236.392 13.5046 236.245 13.3578 236.098 13.3578C235.951 13.211 235.805 13.211 235.658 13.0642C235.511 12.9174 235.365 12.7706 235.365 12.6238C235.218 12.477 235.218 12.3303 235.218 12.0367C235.218 11.5963 235.365 11.1559 235.805 10.7156C236.245 10.422 236.832 10.1284 237.419 10.1284C237.566 10.1284 237.712 10.1284 237.859 10.1284C238.006 10.1284 238.153 10.1284 238.446 10.2752C238.593 10.2752 238.739 10.422 238.886 10.5688C239.033 10.7156 239.033 10.8624 239.033 11.0092C239.033 11.1559 239.033 11.3027 238.886 11.4495C238.739 11.5963 238.593 11.5963 238.446 11.5963C238.299 11.5963 238.153 11.5963 238.153 11.4495C238.006 11.4495 238.006 11.3027 237.859 11.1559C237.859 11.0092 237.712 11.0092 237.712 10.8624C237.712 10.7156 237.566 10.5688 237.566 10.5688H237.419C237.419 10.5688 237.272 10.5688 237.125 10.5688C236.685 10.5688 236.538 10.7156 236.245 10.8624C236.098 11.0092 235.952 11.3027 235.952 11.5963C235.952 11.8899 236.098 12.0367 236.245 12.1835C236.392 12.3303 236.685 12.477 237.125 12.6238C237.712 12.7706 238.006 13.0642 238.299 13.211C238.593 13.5046 238.593 13.7981 238.593 14.0917C238.593 14.6789 238.299 15.1192 237.859 15.5596C237.419 16 236.979 16 236.245 16Z" fill="black"/>
<path d="M249.451 7.77977C249.451 8.51372 249.305 9.10087 249.158 9.83482C248.864 10.5688 248.571 11.1559 248.131 11.5963C247.69 12.1834 247.103 12.477 246.517 12.9174C245.93 13.211 245.196 13.3578 244.315 13.3578C243.435 13.3578 242.555 13.0642 241.968 12.477C241.381 11.8899 241.087 11.0091 241.087 9.98161C241.087 9.24766 241.234 8.51372 241.527 7.92656C241.821 7.33941 242.114 6.75225 242.555 6.16509C242.995 5.72473 243.582 5.28436 244.169 4.99078C244.756 4.6972 245.489 4.55042 246.223 4.55042C246.517 4.55042 246.957 4.55042 247.25 4.6972C247.544 4.6972 247.837 4.84399 247.984 4.84399H251.212L250.919 5.87152H248.571C248.864 6.16509 249.011 6.45867 249.158 6.89904C249.451 7.04583 249.451 7.4862 249.451 7.77977ZM247.69 7.4862C247.69 6.60546 247.544 6.01831 247.25 5.72473C246.957 5.28436 246.517 5.13757 246.076 5.13757C245.489 5.13757 245.049 5.28436 244.609 5.72473C244.169 6.01831 243.875 6.45867 243.582 7.04583C243.288 7.4862 243.142 8.07335 243.142 8.66051C242.995 9.24766 242.995 9.83482 242.995 10.2752C242.995 11.1559 243.142 11.7431 243.435 12.1834C243.729 12.6238 244.169 12.7706 244.756 12.7706C245.196 12.7706 245.783 12.6238 246.076 12.3302C246.517 12.0367 246.81 11.5963 247.103 11.1559C247.397 10.7156 247.544 10.1284 247.69 9.54124C247.837 8.95409 247.69 8.22014 247.69 7.4862Z" fill="black"/>
<path d="M253.56 15.1192L253.413 15.4128C253.12 15.5596 252.826 15.7064 252.533 15.7064C252.386 15.7064 252.092 15.8532 251.946 15.8532C251.652 15.8532 251.359 15.7064 251.212 15.5596C251.065 15.4128 250.919 15.266 250.919 14.9724C250.919 14.8257 250.919 14.8257 250.919 14.6789C250.919 14.5321 250.919 14.5321 251.065 14.3853L251.652 11.8899C251.652 11.7431 251.652 11.5963 251.799 11.4495C251.799 11.3027 251.799 11.1559 251.799 11.0091C251.799 10.8624 251.799 10.7156 251.652 10.5688C251.506 10.422 251.506 10.422 251.212 10.422C251.065 10.422 251.065 10.422 250.919 10.422C250.772 10.422 250.625 10.422 250.625 10.422L250.772 10.1284C251.065 9.98162 251.359 9.83483 251.506 9.83483C251.799 9.83483 251.946 9.68804 252.092 9.68804C252.386 9.68804 252.679 9.83483 252.826 9.98162C252.973 10.1284 252.973 10.2752 252.973 10.5688C252.973 10.5688 252.973 10.7156 252.973 10.8624C252.973 11.0091 252.973 11.1559 252.973 11.1559L252.386 13.6513C252.386 13.7981 252.386 13.9449 252.239 14.0917C252.239 14.2385 252.239 14.3853 252.239 14.3853C252.239 14.5321 252.239 14.6789 252.386 14.8257C252.533 14.9724 252.679 14.9724 252.826 14.9724C252.826 14.9724 252.973 14.9724 253.12 14.9724C253.413 15.1192 253.413 15.1192 253.56 15.1192ZM254 7.77978C254 7.92657 254 8.22015 253.853 8.36694C253.707 8.51373 253.56 8.66052 253.266 8.66052C253.12 8.66052 252.973 8.51373 252.826 8.36694C252.679 8.22015 252.679 8.07336 252.679 7.77978C252.679 7.63299 252.679 7.33942 252.826 7.19263C252.973 7.04584 253.12 6.89905 253.266 6.89905C253.413 6.89905 253.707 6.89905 253.853 7.04584C253.853 7.4862 254 7.63299 254 7.77978Z" fill="black"/>
</g>
<defs>
<clipPath id="clip0">
<rect width="254" height="16" fill="white"/>
</clipPath>
</defs>
</svg>
